<?xml version="1.0" encoding="utf-8"?>
<!-- Generator: Adobe Illustrator 25.0.0, SVG Export Plug-In . SVG Version: 6.00 Build 0)  -->
<svg version="1.1" id="_x31_" xmlns="http://www.w3.org/2000/svg" xmlns:xlink="http://www.w3.org/1999/xlink" x="0px" y="0px"
	 viewBox="0 0 550 287.51" style="enable-background:new 0 0 550 287.51;" xml:space="preserve">
<style type="text/css">
	.st0{opacity:0.5;}
	.st1{opacity:0.1;}
	.st2{fill:#3F3D56;}
	.st3{fill:#FFC603;}
	.st4{opacity:0.1;enable-background:new    ;}
	.st5{opacity:0.1;fill:#FFC603;enable-background:new    ;}
	.st6{fill:none;stroke:#3F3D56;stroke-width:1.6637;stroke-miterlimit:10;}
	.st7{fill:url(#Path_95_1_);}
	.st8{fill:#BE6F72;}
	.st9{fill:#FF6F61;}
	.st10{opacity:0.1;fill:none;stroke:#000000;stroke-width:0.4159;stroke-miterlimit:10;enable-background:new    ;}
	.st11{fill:url(#Path_141_1_);}
	.st12{fill:#2F2E41;}
	.st13{fill:#FBBEBE;}
	.st14{fill:#E8E8F0;}
	.st15{fill:#F86D70;}
</style>
<g id="undraw_contact_us_15o2_1_" transform="translate(0 0.359)" class="st0">
	<g id="Group_19" transform="translate(512.055 47.818)" class="st1">
		<ellipse id="Ellipse_4" class="st2" cx="-271.47" cy="133.01" rx="5.71" ry="7.45"/>
		<path id="Path_37" class="st2" d="M-266.95,101.13c0.8-1.39,1.21-2.96,1.19-4.56c0-4.12-2.56-7.45-5.72-7.45s-5.73,3.35-5.73,7.46
			c-0.01,1.6,0.4,3.17,1.19,4.56c-1.59,2.83-1.59,6.28,0,9.11c-1.59,2.83-1.59,6.28,0,9.11c-0.8,1.39-1.21,2.96-1.19,4.56
			c0,4.11,2.56,7.45,5.71,7.45c3.15,0,5.72-3.34,5.72-7.45c0.02-1.6-0.4-3.17-1.19-4.56c1.59-2.83,1.59-6.28,0-9.11
			c1.59-2.83,1.59-6.28,0-9.11L-266.95,101.13z"/>
		<ellipse id="Ellipse_5" class="st2" cx="-271.47" cy="87.48" rx="5.71" ry="7.45"/>
		<ellipse id="Ellipse_6" class="st2" cx="-271.47" cy="78.37" rx="5.71" ry="7.45"/>
		<path id="Path_38" class="st3" d="M-292.85,16.05c-0.78-0.99-1.49-2.03-2.13-3.12l15-2.46l-16.23,0.12
			c-3.14-6.83-3.32-14.64-0.5-21.6l21.77,11.26L-295-14.47c7.47-13.09,24.18-17.66,37.32-10.21c13.14,7.45,17.72,24.1,10.25,37.19
			c-0.71,1.24-1.51,2.42-2.4,3.53c1.22,1.54,2.26,3.21,3.12,4.97l-19.49,10.11l20.77-6.95c2.97,8.73,1.31,18.36-4.41,25.6
			c9.34,11.83,7.29,28.98-4.59,38.29s-29.08,7.26-38.42-4.57c-7.81-9.89-7.81-23.82,0-33.72c-7.81-9.89-7.81-23.82,0-33.71V16.05z"
			/>
		<path id="Path_39" class="st4" d="M-243.99,32.9c0.01,6.12-2.05,12.06-5.86,16.86c9.34,11.83,7.29,28.98-4.59,38.29
			s-29.08,7.26-38.42-4.57c-7.81-9.89-7.81-23.82,0-33.72C-296.52,45.12-243.99,29.84-243.99,32.9z"/>
	</g>
	<g id="Group_20" transform="translate(688.587 107.836)" class="st1">
		<ellipse id="Ellipse_7" class="st2" cx="-381.33" cy="57.06" rx="4.27" ry="5.57"/>
		<path id="Path_40" class="st2" d="M-377.96,33.24c0.59-1.03,0.9-2.21,0.89-3.4c0-3.08-1.91-5.57-4.27-5.57
			c-2.35,0-4.27,2.5-4.27,5.57c-0.01,1.19,0.3,2.37,0.89,3.4c-1.19,2.11-1.19,4.69,0,6.81c-1.19,2.11-1.19,4.69,0,6.81
			c-0.6,1.03-0.91,2.21-0.89,3.4c0,3.08,1.91,5.57,4.27,5.57s4.27-2.5,4.27-5.57c0.01-1.19-0.29-2.37-0.89-3.4
			c1.18-2.12,1.18-4.69,0-6.81C-376.78,37.93-376.78,35.36-377.96,33.24z"/>
		<ellipse id="Ellipse_8" class="st2" cx="-381.33" cy="23.03" rx="4.27" ry="5.57"/>
		<ellipse id="Ellipse_9" class="st2" cx="-381.33" cy="16.23" rx="4.27" ry="5.57"/>
		<path id="Path_41" class="st3" d="M-397.31-30.35c-0.59-0.74-1.12-1.52-1.59-2.33l11.22-1.84l-12.13,0.09
			c-2.35-5.1-2.49-10.94-0.39-16.15l16.27,8.42l-15.01-11c5.64-9.75,18.14-13.1,27.93-7.48c9.78,5.62,13.14,18.08,7.5,27.83
			c-0.49,0.86-1.05,1.67-1.67,2.45c0.91,1.15,1.69,2.4,2.33,3.72l-14.55,7.54l15.52-5.19c2.21,6.52,0.97,13.72-3.3,19.13
			c6.99,8.84,5.46,21.65-3.41,28.61c-8.87,6.96-21.72,5.44-28.71-3.39c-5.85-7.4-5.85-17.82,0-25.22c-5.84-7.39-5.84-17.8,0-25.19
			L-397.31-30.35z"/>
		<path id="Path_42" class="st4" d="M-360.79-17.75c0.01,4.57-1.53,9.01-4.37,12.6c6.99,8.84,5.46,21.65-3.41,28.61
			c-8.87,6.96-21.72,5.44-28.71-3.39c-5.85-7.4-5.85-17.82,0-25.22C-400.04-8.62-360.79-20.03-360.79-17.75z"/>
	</g>
	<g id="Group_21" transform="translate(1184.59 -0.359)" class="st1">
		<ellipse id="Ellipse_10" class="st2" cx="-663.4" cy="161.18" rx="5.71" ry="7.45"/>
		<path id="Path_43" class="st2" d="M-667.93,129.3c-0.8-1.39-1.21-2.96-1.19-4.56c0-4.12,2.56-7.45,5.72-7.45s5.71,3.34,5.71,7.45
			c0.01,1.6-0.4,3.17-1.19,4.56c1.59,2.83,1.59,6.28,0,9.11c1.59,2.83,1.59,6.28,0,9.11c0.8,1.39,1.21,2.96,1.19,4.56
			c0,4.11-2.56,7.45-5.71,7.45c-3.15,0-5.72-3.34-5.72-7.45c-0.02-1.6,0.4-3.17,1.19-4.56c-1.59-2.83-1.59-6.28,0-9.11
			C-669.52,135.58-669.52,132.13-667.93,129.3z"/>
		<ellipse id="Ellipse_11" class="st2" cx="-663.4" cy="115.65" rx="5.71" ry="7.45"/>
		<ellipse id="Ellipse_12" class="st2" cx="-663.4" cy="106.54" rx="5.71" ry="7.45"/>
		<path id="Path_44" class="st3" d="M-642.03,44.22c0.78-0.99,1.49-2.03,2.13-3.12l-15-2.46l16.23,0.12
			c3.14-6.83,3.32-14.64,0.5-21.6l-21.77,11.26l20.07-14.71c-7.47-13.09-24.18-17.66-37.32-10.21
			c-13.14,7.45-17.72,24.1-10.25,37.19c0.71,1.24,1.51,2.42,2.4,3.53c-1.22,1.54-2.26,3.21-3.12,4.97l19.49,10.11l-20.77-6.95
			c-2.97,8.73-1.31,18.36,4.41,25.6c-9.34,11.83-7.29,28.98,4.59,38.29s29.08,7.26,38.42-4.57c7.81-9.89,7.81-23.82,0-33.72
			c7.81-9.89,7.81-23.82,0-33.71L-642.03,44.22z"/>
		<path id="Path_45" class="st4" d="M-690.89,61.08c-0.01,6.12,2.05,12.06,5.86,16.86c-9.34,11.83-7.29,28.98,4.59,38.29
			s29.08,7.26,38.42-4.57c7.81-9.89,7.81-23.82,0-33.71C-638.36,73.29-690.89,58.02-690.89,61.08z"/>
	</g>
	<g id="Group_22" transform="translate(1069.226 100.609)" class="st1">
		<ellipse id="Ellipse_13" class="st2" cx="-603.17" cy="61.28" rx="4.27" ry="5.57"/>
		<path id="Path_46" class="st2" d="M-606.54,37.47c-0.59-1.03-0.9-2.21-0.89-3.4c0-3.08,1.91-5.57,4.27-5.57s4.27,2.5,4.27,5.57
			c0.01,1.19-0.3,2.37-0.89,3.4c1.19,2.11,1.19,4.69,0,6.81c1.19,2.11,1.19,4.69,0,6.81c0.6,1.03,0.91,2.21,0.89,3.4
			c0,3.08-1.91,5.57-4.27,5.57s-4.27-2.5-4.27-5.57c-0.01-1.19,0.29-2.37,0.89-3.4c-1.18-2.12-1.18-4.69,0-6.81
			C-607.72,42.16-607.72,39.58-606.54,37.47z"/>
		<ellipse id="Ellipse_14" class="st2" cx="-603.17" cy="27.26" rx="4.27" ry="5.57"/>
		<ellipse id="Ellipse_15" class="st2" cx="-603.17" cy="20.45" rx="4.27" ry="5.57"/>
		<path id="Path_47" class="st3" d="M-587.19-26.12c0.59-0.74,1.12-1.52,1.59-2.33l-11.22-1.84l12.13,0.09
			c2.35-5.1,2.49-10.94,0.39-16.15l-16.27,8.42l15.01-11c-5.64-9.75-18.14-13.1-27.93-7.48c-9.78,5.62-13.14,18.08-7.5,27.83
			c0.49,0.86,1.05,1.67,1.67,2.45c-0.91,1.15-1.69,2.4-2.33,3.72l14.55,7.54l-15.49-5.19c-2.21,6.52-0.97,13.72,3.3,19.13
			c-6.99,8.84-5.46,21.65,3.4,28.61c8.87,6.96,21.72,5.44,28.71-3.39c5.85-7.4,5.85-17.82,0-25.22
			C-581.35-8.32-581.35-18.73-587.19-26.12L-587.19-26.12z"/>
		<path id="Path_48" class="st4" d="M-623.71-13.52c-0.01,4.57,1.53,9.01,4.37,12.6c-6.99,8.84-5.46,21.65,3.41,28.61
			c8.87,6.96,21.72,5.44,28.71-3.39c5.85-7.4,5.85-17.82,0-25.22C-584.46-4.39-623.71-15.81-623.71-13.52z"/>
	</g>
	<g id="Group_23" transform="translate(8.803 -0.157)" class="st1">
		<ellipse id="Ellipse_16" class="st2" cx="22.1" cy="160.98" rx="5.71" ry="7.45"/>
		<path id="Path_49" class="st2" d="M26.62,129.1c0.8-1.39,1.21-2.96,1.19-4.56c0-4.12-2.56-7.45-5.71-7.45s-5.71,3.34-5.71,7.45
			c-0.02,1.6,0.39,3.17,1.19,4.56c-1.59,2.83-1.59,6.28,0,9.11c-1.59,2.83-1.59,6.28,0,9.11c-0.8,1.39-1.21,2.96-1.19,4.56
			c0,4.11,2.55,7.45,5.71,7.45s5.73-3.33,5.73-7.44c0.02-1.6-0.4-3.17-1.19-4.56c1.59-2.83,1.59-6.28,0-9.11
			c1.59-2.83,1.59-6.28,0-9.11L26.62,129.1z"/>
		<ellipse id="Ellipse_17" class="st2" cx="22.1" cy="115.45" rx="5.71" ry="7.45"/>
		<ellipse id="Ellipse_18" class="st2" cx="22.1" cy="106.34" rx="5.71" ry="7.45"/>
		<path id="Path_50" class="st3" d="M0.73,44.02c-0.78-0.99-1.49-2.03-2.13-3.12l15.01-2.46l-16.24,0.14
			c-3.14-6.83-3.32-14.64-0.5-21.6l21.78,11.26L-1.43,13.53C6.08,0.46,22.79-4.08,35.91,3.4s17.66,24.13,10.16,37.2
			c-0.69,1.2-1.47,2.34-2.33,3.43c1.22,1.54,2.26,3.21,3.12,4.97L27.37,59.09l20.78-6.95c2.96,8.73,1.3,18.36-4.42,25.6
			c9.34,11.83,7.29,28.98-4.59,38.29s-29.08,7.26-38.42-4.57c-7.81-9.89-7.81-23.82,0-33.72c-7.81-9.89-7.81-23.82,0-33.71
			L0.73,44.02z"/>
		<path id="Path_51" class="st4" d="M49.58,60.88c0.01,6.12-2.05,12.06-5.86,16.86c9.34,11.83,7.29,28.98-4.59,38.29
			s-29.08,7.26-38.42-4.57c-7.81-9.89-7.81-23.82,0-33.72C-2.95,73.09,49.58,57.81,49.58,60.88z"/>
	</g>
	<g id="Group_24" transform="translate(157.634 100.609)" class="st1">
		<ellipse id="Ellipse_19" class="st2" cx="-71.6" cy="61.28" rx="4.27" ry="5.57"/>
		<path id="Path_52" class="st2" d="M-68.22,37.47c0.59-1.03,0.9-2.21,0.89-3.4c0-3.08-1.91-5.57-4.27-5.57
			c-2.36,0-4.27,2.5-4.27,5.57c-0.01,1.19,0.3,2.37,0.89,3.4c-1.19,2.11-1.19,4.69,0,6.81c-1.19,2.11-1.19,4.69,0,6.81
			c-0.6,1.03-0.9,2.21-0.89,3.4c0,3.08,1.91,5.57,4.27,5.57c2.36,0,4.27-2.5,4.27-5.57c0.01-1.19-0.29-2.37-0.89-3.4
			c1.18-2.12,1.18-4.69,0-6.81C-67.04,42.16-67.04,39.58-68.22,37.47L-68.22,37.47z"/>
		<ellipse id="Ellipse_20" class="st2" cx="-71.6" cy="27.26" rx="4.27" ry="5.57"/>
		<ellipse id="Ellipse_21" class="st2" cx="-71.6" cy="20.45" rx="4.27" ry="5.57"/>
		<path id="Path_53" class="st3" d="M-87.58-26.12c-0.58-0.74-1.12-1.52-1.59-2.33l11.22-1.84l-12.13,0.09
			c-2.35-5.1-2.49-10.94-0.39-16.15l16.27,8.42l-15.01-11c5.64-9.75,18.14-13.1,27.93-7.48s13.14,18.08,7.5,27.83
			c-0.49,0.86-1.05,1.67-1.67,2.45c0.91,1.15,1.69,2.4,2.33,3.72l-14.55,7.54l15.52-5.19c2.21,6.52,0.97,13.72-3.3,19.13
			c6.99,8.84,5.46,21.65-3.41,28.61s-21.72,5.44-28.71-3.39c-5.85-7.4-5.85-17.82,0-25.22c-5.84-7.39-5.84-17.8,0-25.19
			L-87.58-26.12z"/>
		<path id="Path_54" class="st4" d="M-51.07-13.52c0.01,4.57-1.53,9.01-4.37,12.6c6.99,8.84,5.46,21.65-3.41,28.61
			s-21.72,5.44-28.71-3.39c-5.85-7.4-5.85-17.82,0-25.22C-90.32-4.39-51.07-15.81-51.07-13.52z"/>
	</g>
	<ellipse id="Ellipse_22" class="st5" cx="275" cy="246.34" rx="275" ry="4.43"/>
	<ellipse id="Ellipse_23" class="st5" cx="275" cy="282.72" rx="275" ry="4.43"/>
	<ellipse id="Ellipse_24" class="st5" cx="275" cy="170.42" rx="275" ry="4.43"/>
	<ellipse id="Ellipse_25" class="st5" cx="275" cy="208.38" rx="275" ry="4.43"/>
	<path id="Path_55" class="st5" d="M405.87,54.93c-1.79-0.34-3.64-0.13-5.32,0.58c-2.03,0.9-4.36,0.9-6.39,0
		c-2.41-1.05-5.16-1-7.53,0.14c-0.67,0.35-1.41,0.54-2.16,0.54c-3.05,0-5.58-3.06-6.11-7.1c0.6-0.45,1.11-1,1.5-1.63
		c1.79-2.87,4.55-4.72,7.66-4.72c3.11,0,5.84,1.82,7.63,4.66c1.08,1.75,3,2.8,5.06,2.77h0.08C402.75,50.16,404.85,52.1,405.87,54.93
		z"/>
	<path id="Path_56" class="st5" d="M415.16,42.26l-4.93,3.11l3.01-5.42c-0.85-0.67-1.9-1.04-2.98-1.06h-0.08
		c-0.34,0-0.67-0.02-1-0.08l-1.7,1.06l0.72-1.3c-1.19-0.41-2.21-1.18-2.93-2.21l-3.01,1.89l1.89-3.42c-1.75-2.09-4.1-3.37-6.69-3.37
		c-3.11,0-5.87,1.84-7.67,4.71c-1.08,1.75-3.01,2.79-5.06,2.72h-0.17c-3.43,0-6.21,3.88-6.21,8.66c0,4.78,2.78,8.66,6.21,8.66
		c0.75,0,1.5-0.19,2.16-0.54c2.36-1.15,5.12-1.2,7.53-0.15c2.03,0.91,4.36,0.91,6.39,0c2.39-1.03,5.11-0.98,7.46,0.14
		c0.66,0.34,1.39,0.53,2.14,0.53c3.43,0,6.21-3.88,6.21-8.66C416.47,45.69,416.03,43.88,415.16,42.26z"/>
	<path id="Path_57" class="st5" d="M196.34,52.23c-1.26-0.24-2.55-0.1-3.73,0.4c-1.42,0.63-3.05,0.63-4.47,0
		c-1.68-0.74-3.61-0.7-5.26,0.11c-0.47,0.24-0.98,0.37-1.51,0.37c-2.13,0-3.91-2.14-4.28-4.97c0.43-0.31,0.79-0.7,1.07-1.15
		c1.25-2,3.19-3.3,5.36-3.3c2.18,0,4.09,1.28,5.34,3.26c0.76,1.22,2.11,1.96,3.55,1.94h0.06C194.16,48.89,195.63,50.25,196.34,52.23
		z"/>
	<path id="Path_58" class="st5" d="M202.84,43.36l-3.45,2.18l2.09-3.8c-0.59-0.47-1.33-0.73-2.08-0.74h-0.06
		c-0.24,0-0.48-0.01-0.71-0.06l-1.17,0.74l0.5-0.91c-0.83-0.29-1.55-0.83-2.05-1.55l-2.09,1.32l1.32-2.39
		c-1.13-1.45-2.85-2.32-4.69-2.37c-2.18,0-4.11,1.29-5.36,3.3c-0.75,1.22-2.11,1.95-3.55,1.91h-0.12c-2.4,0-4.35,2.71-4.35,6.06
		c0,3.35,1.95,6.06,4.35,6.06c0.53,0,1.04-0.13,1.51-0.38c1.65-0.8,3.58-0.84,5.26-0.1c1.42,0.66,3.05,0.67,4.48,0.03
		c1.67-0.72,3.58-0.68,5.22,0.1c0.46,0.24,0.98,0.37,1.51,0.37c2.4,0,4.35-2.72,4.35-6.06C203.76,45.79,203.45,44.51,202.84,43.36z"
		/>
	<path id="Path_59" class="st5" d="M135.29,91.44c1.25-0.24,2.55-0.09,3.72,0.41c1.42,0.63,3.05,0.63,4.48,0
		c1.68-0.74,3.61-0.7,5.26,0.1c0.46,0.25,0.98,0.38,1.51,0.38c2.13,0,3.91-2.15,4.28-4.97c-0.43-0.31-0.79-0.7-1.06-1.15
		c-1.25-2-3.19-3.3-5.36-3.3s-4.09,1.27-5.34,3.26c-0.76,1.22-2.1,1.96-3.54,1.94h-0.05C137.47,88.12,135.99,89.48,135.29,91.44z"/>
	<path id="Path_60" class="st5" d="M128.78,82.59l3.45,2.18l-2.1-3.79c0.59-0.47,1.33-0.74,2.09-0.75h0.06
		c0.24,0,0.48-0.01,0.72-0.05l1.17,0.73l-0.5-0.91c0.83-0.29,1.54-0.83,2.04-1.55l2.09,1.32l-1.3-2.4c1.13-1.45,2.85-2.32,4.69-2.36
		c2.17,0,4.11,1.29,5.36,3.3c0.75,1.22,2.1,1.95,3.54,1.91h0.12c2.4,0,4.35,2.72,4.35,6.06s-1.95,6.06-4.35,6.06
		c-0.52,0-1.04-0.13-1.51-0.37c-1.65-0.8-3.58-0.84-5.26-0.11c-0.71,0.32-1.47,0.49-2.25,0.5c-0.77,0-1.53-0.16-2.23-0.47
		c-1.67-0.72-3.57-0.68-5.21,0.1c-0.46,0.24-0.98,0.37-1.51,0.37c-2.4,0-4.35-2.71-4.35-6.06
		C127.87,85.02,128.18,83.74,128.78,82.59z"/>
	<path id="Path_61" class="st6" d="M140.92,232.58c1.31-2.42-0.18-5.38-1.88-7.54c-1.71-2.16-3.79-4.4-3.75-7.15
		c0.07-3.94,4.27-6.28,7.63-8.37c2.49-1.56,4.79-3.4,6.85-5.5c0.86-0.81,1.57-1.76,2.1-2.81c0.7-1.54,0.68-3.3,0.63-5
		c-0.14-5.63-0.42-11.26-0.84-16.88"/>
	<path id="Path_62" class="st3" d="M158.05,179.06c-0.1-2.1-1.26-4-3.09-5.05l-1.38,2.73l0.04-3.3c-3.27-0.96-6.71,0.91-7.67,4.17
		s0.91,6.68,4.18,7.64c3.27,0.96,6.71-0.91,7.67-4.17C158,180.42,158.08,179.74,158.05,179.06z"/>
	<path id="Path_63" class="st3" d="M147.03,220.72c-1.56,3.02-5.29,4.21-8.32,2.66c-1.96-1-3.23-2.97-3.34-5.16
		c-0.05-0.85,0.09-1.7,0.4-2.5c1.24-3.17,4.83-4.73,8.01-3.5c1.63,0.63,2.91,1.93,3.53,3.56l-3.86,3.13l4.25-1
		C147.7,218.89,147.47,219.85,147.03,220.72z"/>
	<path id="Path_64" class="st3" d="M143.98,208.77c-3.41,0.16-6.3-2.46-6.46-5.86c-0.14-2.87,1.73-5.45,4.51-6.22l-0.03,2.54
		l1.4-2.76l0,0c3.41-0.16,6.3,2.47,6.46,5.86c0.16,3.4-2.47,6.28-5.88,6.44l0,0L143.98,208.77z"/>
	<path id="Path_65" class="st3" d="M158.98,198.82c-3.41,0.18-6.31-2.43-6.49-5.83c-0.18-3.4,2.44-6.29,5.85-6.47
		c1.18-0.06,2.34,0.21,3.37,0.79l-1.09,3l2.22-2.19c2.52,2.3,2.69,6.19,0.38,8.7c-1.1,1.2-2.63,1.91-4.26,1.99L158.98,198.82z"/>
	<path id="Path_66" class="st4" d="M157.22,180.7c-1.43,0.15-2.81,0.59-4.25,0.69c-1.44,0.09-3.01-0.25-3.9-1.36
		c-0.42-0.64-0.8-1.31-1.14-2c-0.39-0.61-0.92-1.11-1.56-1.46c-1.55,3.03-0.35,6.74,2.69,8.28c3.04,1.55,6.76,0.35,8.31-2.68
		c0.24-0.48,0.43-0.99,0.54-1.51C157.68,180.66,157.45,180.67,157.22,180.7z"/>
	<path id="Path_67" class="st4" d="M158.98,198.82c-3.41,0.16-6.3-2.46-6.46-5.86c-0.05-1.01,0.15-2.01,0.59-2.92
		c0.49,0.33,0.91,0.75,1.24,1.24c0.37,0.7,0.78,1.38,1.22,2.03c0.96,1.13,2.61,1.5,4.1,1.42s2.93-0.5,4.42-0.62
		c0.21,0,0.41-0.03,0.62-0.03C164.08,196.76,161.74,198.7,158.98,198.82L158.98,198.82z"/>
	<path id="Path_68" class="st4" d="M143.98,208.77c-3.41,0.16-6.3-2.46-6.46-5.86c-0.05-0.96,0.14-1.92,0.53-2.81
		c0.51,0.33,0.95,0.76,1.31,1.25c0.4,0.72,0.85,1.41,1.34,2.08c1.04,1.16,2.8,1.57,4.37,1.5c1.58-0.07,3.01-0.41,4.52-0.5
		C148.82,206.91,146.58,208.64,143.98,208.77z"/>
	<path id="Path_69" class="st4" d="M147.03,220.72c-1.56,3.02-5.29,4.21-8.32,2.66c-1.96-1-3.23-2.97-3.34-5.16
		c-0.05-0.85,0.09-1.7,0.4-2.5c0.51,0.33,0.97,0.74,1.35,1.2c0.59,0.71,0.97,1.5,1.66,2.19c1.26,1.24,3.3,1.74,5.11,1.79
		C144.94,220.91,145.99,220.85,147.03,220.72z"/>
	<path id="Path_70" class="st6" d="M27.25,208.9c1.31-2.42-0.18-5.38-1.88-7.54c-1.71-2.16-3.79-4.41-3.75-7.15
		c0.07-3.94,4.27-6.28,7.63-8.37c2.49-1.56,4.79-3.4,6.85-5.5c0.86-0.81,1.57-1.76,2.1-2.81c0.7-1.54,0.68-3.3,0.63-5
		c-0.15-5.63-0.43-11.26-0.84-16.88"/>
	<path id="Path_71" class="st3" d="M44.39,155.37c-0.1-2.1-1.26-4-3.09-5.05l-1.38,2.73l0.04-3.3c-3.27-0.96-6.71,0.91-7.67,4.17
		c-0.96,3.26,0.91,6.68,4.18,7.64c3.27,0.96,6.71-0.91,7.67-4.17C44.34,156.74,44.42,156.06,44.39,155.37z"/>
	<path id="Path_72" class="st3" d="M33.37,197.04c-1.56,3.02-5.28,4.21-8.32,2.66c-1.96-1-3.23-2.97-3.34-5.16
		c-0.05-0.85,0.09-1.7,0.4-2.5c1.24-3.17,4.83-4.73,8.01-3.5c1.63,0.63,2.91,1.93,3.53,3.56l-3.86,3.13l4.25-1
		C34.04,195.21,33.81,196.17,33.37,197.04z"/>
	<path id="Path_73" class="st3" d="M30.32,185.09c-3.41,0.16-6.3-2.46-6.46-5.86c-0.14-2.87,1.73-5.45,4.51-6.22l-0.03,2.54
		l1.4-2.76l0,0c3.41-0.14,6.29,2.51,6.42,5.91c0.14,3.37-2.47,6.22-5.85,6.4H30.32z"/>
	<path id="Path_74" class="st3" d="M45.31,175.14c-3.41,0.18-6.31-2.43-6.49-5.83c-0.18-3.4,2.44-6.29,5.85-6.47
		c1.18-0.06,2.34,0.21,3.37,0.79l-1.09,3l2.22-2.19c2.52,2.3,2.69,6.19,0.38,8.7c-1.1,1.2-2.63,1.91-4.26,1.99L45.31,175.14z"/>
	<path id="Path_75" class="st4" d="M43.55,157.01c-1.43,0.15-2.81,0.59-4.25,0.69c-1.43,0.09-3.01-0.25-3.9-1.36
		c-0.42-0.64-0.8-1.31-1.14-2c-0.39-0.61-0.92-1.11-1.56-1.46c-1.55,3.03-0.35,6.74,2.69,8.28c3.04,1.55,6.76,0.35,8.31-2.68
		c0.24-0.48,0.43-0.99,0.54-1.51C44.02,156.97,43.78,156.99,43.55,157.01z"/>
	<path id="Path_76" class="st4" d="M45.31,175.14c-3.41,0.16-6.3-2.46-6.46-5.86c-0.05-1.01,0.15-2.01,0.59-2.92
		c0.49,0.33,0.91,0.75,1.24,1.24c0.37,0.7,0.78,1.38,1.22,2.03c0.96,1.13,2.61,1.5,4.1,1.42c1.49-0.08,2.93-0.5,4.42-0.62
		c0.21,0,0.41-0.03,0.62-0.03C50.41,173.08,48.07,175.01,45.31,175.14z"/>
	<path id="Path_77" class="st4" d="M30.32,185.09c-3.41,0.16-6.3-2.46-6.46-5.86c-0.05-0.96,0.14-1.93,0.53-2.81
		c0.51,0.33,0.95,0.76,1.31,1.25c0.4,0.72,0.85,1.41,1.34,2.08c1.04,1.16,2.8,1.57,4.37,1.5c1.58-0.07,3.01-0.41,4.52-0.5
		C35.16,183.23,32.91,184.96,30.32,185.09z"/>
	<path id="Path_78" class="st4" d="M33.37,197.04c-1.56,3.02-5.28,4.21-8.32,2.66c-1.96-1-3.23-2.97-3.34-5.16
		c-0.05-0.85,0.09-1.7,0.4-2.5c0.51,0.33,0.97,0.74,1.35,1.2c0.59,0.71,0.97,1.5,1.66,2.19c1.26,1.24,3.3,1.74,5.11,1.79
		C31.28,197.22,32.33,197.16,33.37,197.04z"/>
	<path id="Path_84" class="st4" d="M214.81,115.83c1.43,0.15,2.81,0.59,4.24,0.69c1.43,0.09,3.01-0.25,3.91-1.36
		c0.42-0.64,0.8-1.31,1.14-2c0.39-0.61,0.93-1.11,1.56-1.46c1.55,3.03,0.35,6.74-2.69,8.28c-3.04,1.55-6.76,0.35-8.31-2.68
		c-0.25-0.48-0.43-0.99-0.54-1.52C214.34,115.78,214.57,115.8,214.81,115.83z"/>
	
		<linearGradient id="Path_95_1_" gradientUnits="userSpaceOnUse" x1="-271.6577" y1="680.0971" x2="-271.6577" y2="680.5123" gradientTransform="matrix(62.389 0 0 -207.2579 17333.3965 141240.2188)">
		<stop  offset="0" style="stop-color:#808080;stop-opacity:0.251"/>
		<stop  offset="0.54" style="stop-color:#808080;stop-opacity:0.122"/>
		<stop  offset="1" style="stop-color:#808080;stop-opacity:0.102"/>
	</linearGradient>
	<path id="Path_95" class="st7" d="M395.9,220.4c-0.45-1.11-0.92-2.21-1.4-3.31c-0.39-1.07-0.97-2.07-1.71-2.95
		c-0.28-0.32-0.62-0.57-1-0.75c-0.42-0.15-0.86-0.24-1.31-0.26c-0.68-0.09-1.37-0.1-2.06-0.05c-0.27-0.08-0.57-0.19-0.86-0.31
		c3.05-0.8,5.22-3.49,5.34-6.63v-0.3c0.02-3.94-3.17-7.14-7.12-7.16c0,0,0,0,0,0c-1.32,0-2.62,0.37-3.74,1.07
		c-3.05-0.69-6.17,0.81-7.53,3.62c-1.68,1.6-2.61,3.83-2.56,6.15v0.32c0.13,3.89,2.65,7,5.83,7.32c-0.34,0.15-0.65,0.36-0.92,0.61
		c-0.97,0.94-1.13,2.42-1.24,3.77l-0.08,1l-1.69,0.6c-0.16,0.06-0.25,0.24-0.19,0.4c0.02,0.06,0.06,0.11,0.11,0.15l1.61,1.15v0.29
		c0,0.11,0.01,0.22,0.03,0.33c-0.28,0.24-0.49,0.55-0.62,0.89c-0.16,0.52-0.21,1.08-0.15,1.62l0.06,1.4
		c-0.01,1.05,0.14,2.1,0.43,3.11c0.21,0.62,1.12,2.12,1.78,2.13c-0.61,2.75-0.77,8.55-0.77,8.55c-0.08,0.08,0.14,0.14,0.5,0.21
		c0.36,2.76,1.54,10.5,3.63,13.91c0.33,1.11,0.59,2.24,0.79,3.38c0,0,0.6,7.36,1.38,9.54c0.67,1.86,1.2,6.45,1.35,7.78
		c-0.28,0.07-0.49,0.29-0.56,0.57c-0.4,1.19-2.97,3-2.97,3c-0.79,0.39-1.53,0.87-2.22,1.42c-0.81,0.72-0.78,1.38,2.81,0.97
		c6.93-0.8,8.11-3,8.11-3s-0.11-0.37-0.28-0.85c-0.21-0.75-0.52-1.46-0.91-2.14c-0.1-0.1-0.2,0.07-0.32,0.32
		c-0.52-3.19-0.68-6.43-0.47-9.66c0,0,0.2-3.38-0.79-5.77c-0.22-1.25-0.22-2.53,0-3.78c0.4-1.59-1.58-9.35-1.58-9.35l-1.13-5.71
		c0.15,0.19,0.26,0.42,0.32,0.66l0.03,0.12l0.03,0.17c0.01,0.06,0.04,0.11,0.08,0.15c0.77,3.2,2.89,12.07,2.89,13.37
		c0,1.59,1.98,5.57,1.98,5.57s0.79,6.56,2.17,9.14c1.05,1.97,1.08,4.85,1.03,6.12l0,0c0,0-0.24,1.64-0.63,2.03
		c-0.32,0.39-0.57,0.83-0.75,1.3l-0.04,0.1c0,0-0.59,1.2-0.2,1.4c1.51,0.59,3.14,0.79,4.75,0.59c0,0,0.79-1,0.79-1.39
		c-0.02-0.24-0.05-0.48-0.09-0.71c-0.15-0.94-0.42-2.42-0.42-2.44c0.17-0.64-0.5-2.42-0.5-2.42l-0.2-5.57
		c0.37-3.77-0.11-7.57-1.38-11.14c0,0-1-3.58-0.79-4.57c0.22-1-0.4-11.53-0.4-11.53l-0.06-0.15c-0.05-0.75-0.03-1.49,0.06-2.24
		c0.2-2.39-0.59-7.36-0.79-7.55c-0.16-0.53-0.26-1.09-0.28-1.65c0.04-0.42,0.18-1.63,0.37-3.14c1.95-0.07,3.9-0.23,5.83-0.5
		c0.19,0,0.37-0.07,0.5-0.2c0.08-0.12,0.12-0.26,0.12-0.41C398.14,226.08,397.04,223.17,395.9,220.4z M391.93,226.7
		c0.21-1.42,0.43-2.81,0.65-3.83l0.03,0.09c0.38,1.03,0.7,2.08,0.95,3.15C393.03,226.35,392.48,226.55,391.93,226.7L391.93,226.7z"
		/>
	<path id="Path_96" class="st8" d="M376.55,242.8c0,0,1.18,10.62,3.75,14.74c0.33,1.1,0.59,2.21,0.79,3.34c0,0,0.59,7.27,1.38,9.43
		c0.79,2.16,1.38,8.06,1.38,8.06s2.76,3.14,3.75,0.59c-0.62-3.37-0.82-6.8-0.59-10.22c0,0,0.2-3.34-0.79-5.7
		c-0.22-1.23-0.22-2.5,0-3.73c0.39-1.58-1.58-9.24-1.58-9.24l-1.58-7.67L376.55,242.8z"/>
	<path id="Path_97" class="st9" d="M388.98,280.93c0,0-1.18,2.16-8.08,2.95c-3.58,0.41-3.61-0.24-2.8-0.96
		c0.68-0.54,1.43-1.01,2.21-1.4c0,0,2.56-1.77,2.96-2.95c0.39-1.18,1.78-0.2,1.78-0.2c1.97,2.95,2.37-0.79,2.76-0.4
		c0.39,0.66,0.7,1.37,0.91,2.11C388.87,280.56,388.98,280.93,388.98,280.93z"/>
	<path id="Path_98" class="st4" d="M388.98,280.93c0,0-1.18,2.16-8.08,2.95c-3.58,0.41-3.61-0.24-2.8-0.96
		c0.56,0.35,1.7,0.5,3.98-0.42c3.29-1.34,5.67-2.12,6.63-2.42C388.87,280.56,388.98,280.93,388.98,280.93z"/>
	<path id="Path_99" class="st4" d="M387.01,268.75c0,0,0.2-3.34-0.79-5.7c-0.22-1.23-0.22-2.5,0-3.73c0.39-1.58-1.58-9.24-1.58-9.24
		l-1.57-7.67l-1.36,0.08l1.56,7.59c0,0,1.97,7.66,1.58,9.24c-0.22,1.23-0.22,2.5,0,3.73c1,2.36,0.79,5.7,0.79,5.7
		c-0.23,3.42-0.03,6.85,0.59,10.22c-0.11,0.32-0.31,0.6-0.57,0.81c0.73,0.33,1.51,0.32,1.95-0.81
		C386.98,275.6,386.78,272.16,387.01,268.75z"/>
	<path id="Path_100" class="st2" d="M385.72,199.66c-1.32,0-2.61,0.36-3.72,1.06c-3.04-0.7-6.16,0.78-7.53,3.58
		c-1.67,1.58-2.6,3.79-2.55,6.08c0,4.18,2.83,7.57,6.31,7.57c2.51,0,4.71-1.78,5.72-4.36c0.58,0.15,1.18,0.23,1.78,0.23
		c3.92,0,7.1-3.17,7.1-7.08C392.82,202.83,389.64,199.67,385.72,199.66L385.72,199.66z"/>
	<path id="Path_101" class="st8" d="M391.54,243.79l0.59,1.57c0,0,0.59,10.42,0.39,11.4c-0.2,0.99,0.79,4.5,0.79,4.5
		c1.28,3.52,1.75,7.28,1.38,11l0.2,5.5c0,0,0.79,2.16,0.4,2.56s-3.37-0.35-3.37-0.35s0.4-4.13-1-6.68c-1.4-2.56-2.17-9.04-2.17-9.04
		s-1.97-3.93-1.97-5.5s-3.16-14.35-3.16-14.35L391.54,243.79z"/>
	<path id="Path_102" class="st2" d="M376.16,243.59c0,0,0.2-7.08,1-9.24c0.41-1.01,0.7-2.06,0.88-3.14c0,0,11.94,2.15,12.93,1.37
		c0,0,0.2,2.75,0.4,2.95c0.2,0.2,1,5.11,0.79,7.47s0,2.36,0,2.36s-8.09,1.18-8.29,0c-0.2-1.18-0.79-1.18-0.79-1.18
		S375.77,243.96,376.16,243.59z"/>
	<g id="Group_25" transform="translate(902.804 560.872)" class="st1">
		<path id="Path_103" d="M-520.14-317.28c0,0-4.99-0.13-6.49-0.41v0.41c-0.39,0.39,6.91,0.59,6.91,0.59
			c0.1,0.01,0.19,0.05,0.27,0.11C-519.72-317.28-520.14-317.28-520.14-317.28z"/>
		<path id="Path_104" d="M-511.46-325.34c-0.2-0.2-0.4-2.95-0.4-2.95c-0.1,0.06-0.22,0.1-0.34,0.12c0.07,0.83,0.21,2.11,0.34,2.24
			c0.13,0.13,1,5.11,0.79,7.47c-0.22,2.36,0,2.36,0,2.36s-6.4,0.94-7.95,0.31c0.01,0.09,0.03,0.19,0.06,0.28c0.2,1.18,8.29,0,8.29,0
			s-0.2,0,0-2.36S-511.26-325.14-511.46-325.34z"/>
		<path id="Path_105" d="M-520.14-317.28c0,0-4.99-0.13-6.49-0.41v0.41c-0.39,0.39,6.91,0.59,6.91,0.59
			c0.1,0.01,0.19,0.05,0.27,0.11C-519.72-317.28-520.14-317.28-520.14-317.28z"/>
		<path id="Path_106" d="M-511.46-325.34c-0.2-0.2-0.4-2.95-0.4-2.95c-0.1,0.06-0.22,0.1-0.34,0.12c0.07,0.83,0.21,2.11,0.34,2.24
			c0.13,0.13,1,5.11,0.79,7.47c-0.22,2.36,0,2.36,0,2.36s-6.4,0.94-7.95,0.31c0.01,0.09,0.03,0.19,0.06,0.28c0.2,1.18,8.29,0,8.29,0
			s-0.2,0,0-2.36S-511.26-325.14-511.46-325.34z"/>
	</g>
	<path id="Path_107" class="st8" d="M384.85,212.05c0.17,0.38,0.43,0.71,0.75,0.97c0.21,0.15,0.45,0.26,0.71,0.31
		c-0.44,0.25-0.92,0.45-1.36,0.7c-0.69,0.47-1.36,0.97-2.01,1.5c-0.66,0.53-1.46,0.84-2.3,0.89c0.6-0.81,0.72-1.87,0.32-2.8
		c-0.18-0.3-0.3-0.63-0.35-0.97c0-0.57,0.5-1,0.97-1.3c0.38-0.25,0.76-0.5,1.15-0.74c0.31-0.19,0.77-0.59,1.15-0.58
		s0.43,0.35,0.5,0.71C384.48,211.19,384.64,211.63,384.85,212.05z"/>
	<path id="Path_108" class="st4" d="M384.85,212.05c0.17,0.38,0.43,0.71,0.75,0.97c0.21,0.15,0.45,0.26,0.71,0.31
		c-0.44,0.25-0.92,0.45-1.36,0.7c-0.69,0.47-1.36,0.97-2.01,1.5c-0.66,0.53-1.46,0.84-2.3,0.89c0.6-0.81,0.72-1.87,0.32-2.8
		c-0.18-0.3-0.3-0.63-0.35-0.97c0-0.57,0.5-1,0.97-1.3c0.38-0.25,0.76-0.5,1.15-0.74c0.31-0.19,0.77-0.59,1.15-0.58
		s0.43,0.35,0.5,0.71C384.48,211.19,384.64,211.63,384.85,212.05z"/>
	<ellipse id="Ellipse_29" class="st8" cx="389.47" cy="219.12" rx="4.54" ry="4.52"/>
	<path id="Path_109" class="st9" d="M395.88,283.29c0,0.39-0.79,1.38-0.79,1.38c-1.6,0.2-3.23-0.01-4.73-0.59
		c-0.4-0.2,0.2-1.38,0.2-1.38l0.04-0.1c0.18-0.46,0.43-0.89,0.75-1.28c0.39-0.39,0.63-2,0.63-2c1.22-2,3.4,0.87,3.4,0.87
		s0.28,1.5,0.42,2.41C395.83,282.83,395.86,283.06,395.88,283.29z"/>
	<path id="Path_110" class="st4" d="M395.88,283.29c0,0.4-0.79,1.38-0.79,1.38c-1.6,0.2-3.23-0.01-4.73-0.59
		c-0.4-0.2,0.2-1.38,0.2-1.38l0.04-0.1c1.34,0.62,2.81,0.92,4.3,0.88l0.9-0.9C395.84,282.92,395.88,283.19,395.88,283.29z"/>
	<ellipse id="Ellipse_30" class="st8" cx="380.4" cy="209.69" rx="4.44" ry="4.42"/>
	<path id="Path_111" class="st8" d="M376.82,218.53c-0.97,0.93-1.13,2.39-1.23,3.73l-0.15,1.96c-0.05,0.53-0.07,1.06-0.04,1.59
		c0,0.33,0.08,0.66,0.11,1s0.04,0.78,0.04,1.18v2.89c-0.05,0.6,0.06,1.19,0.32,1.74c0.29,0.54,0.94,0.78,1.51,0.54
		c0.31-0.24,0.53-0.58,0.62-0.96c0.49-1.17,0.83-2.4,1-3.66c0.04-0.44,0.05-0.87,0.08-1.31c0.04-0.43,0.12-0.89,0.18-1.33
		c0.28-1.84,0.41-3.7,0.53-5.56c0.04-0.55,0.53-2.72-0.19-2.96c-0.35-0.12-1.08,0.24-1.42,0.36
		C377.69,217.9,377.22,218.17,376.82,218.53L376.82,218.53z"/>
	<path id="Path_112" class="st4" d="M376.82,218.53c-0.97,0.93-1.13,2.39-1.23,3.73l-0.15,1.96c-0.05,0.53-0.07,1.06-0.04,1.59
		c0,0.33,0.08,0.66,0.11,1s0.04,0.78,0.04,1.18v2.89c-0.05,0.6,0.06,1.19,0.32,1.74c0.29,0.54,0.94,0.78,1.51,0.54
		c0.31-0.24,0.53-0.58,0.62-0.96c0.49-1.17,0.83-2.4,1-3.66c0.04-0.44,0.05-0.87,0.08-1.31c0.04-0.43,0.12-0.89,0.18-1.33
		c0.28-1.84,0.41-3.7,0.53-5.56c0.04-0.55,0.53-2.72-0.19-2.96c-0.35-0.12-1.08,0.24-1.42,0.36
		C377.69,217.9,377.22,218.17,376.82,218.53L376.82,218.53z"/>
	<path id="Path_113" class="st9" d="M386.02,212.54c0,0-3.35,2.56-5.32,3.15c0,0-1.17,1.33-1.37,1.65c-0.2,0.32-0.6,3.85-1,4.64
		c-0.4,0.79-1.38,2.56,0,4.32c0,0,0.39,1.77,0.2,2.36c-0.2,0.59-0.91,2.75-0.26,2.85c0.65,0.1,2.63,1.47,4.4,1.08
		c1.77-0.39,8.39,1.5,8.39,1.5s1.09-10.13,1.89-11.92l-1.78-0.59c0,0-4.93-2.95-1.97-7.47
		C389.18,214.11,386.41,213.52,386.02,212.54z"/>
	<path id="Path_114" class="st2" d="M373.78,224.37l4.07,2.88c0.11,0.08,0.25,0.08,0.36,0l1.1-0.83c0.13-0.11,0.15-0.31,0.03-0.44
		c-0.01-0.01-0.02-0.02-0.03-0.03l-3.14-2.78c-0.08-0.08-0.2-0.1-0.31-0.06l-2.01,0.72c-0.16,0.05-0.24,0.23-0.19,0.39
		C373.69,224.29,373.73,224.34,373.78,224.37L373.78,224.37z"/>
	<path id="Path_115" class="st8" d="M375.15,233.03c-0.29-1-0.43-2.03-0.43-3.07l-0.06-1.39c-0.06-0.54-0.01-1.08,0.15-1.6
		c0.31-0.72,0.93-1.26,1.69-1.48c0.75-0.21,1.53-0.26,2.3-0.17c0.1,0,0.21,0.03,0.3,0.08c0.08,0.07,0.13,0.17,0.16,0.27
		c0.23,0.45,0.26,0.97,0.09,1.45c-0.12,0.19-0.27,0.35-0.46,0.47c-0.55,0.39-1.18,0.65-1.7,1.07c-0.11,0.07-0.19,0.17-0.23,0.29
		c-0.02,0.1-0.02,0.21,0,0.32c0.06,0.28,0.15,0.54,0.26,0.81c0.04,0.13,0.12,0.25,0.23,0.34c0.1,0.08,0.22,0.11,0.32,0.19
		c0.22,0.18,0.67,0.4,0.64,0.68c-0.08,1-0.68,2.12-0.91,3.11C377.04,236.35,375.44,233.88,375.15,233.03z"/>
	<g id="Group_26" transform="translate(915.33 535.074)" class="st1">
		<path id="Path_116" d="M-533.84-302.49h-0.11c0.43,0.08,0.87,0.08,1.29,0h0.12C-532.97-302.55-533.41-302.55-533.84-302.49z"/>
		<path id="Path_117" d="M-523.49-313.2c-0.71,1.59-1.75,10.17-1.94,11.87c0.69,0.18,1.15,0.31,1.15,0.31s1.08-10.1,1.87-11.89
			L-523.49-313.2z"/>
	</g>
	<path id="Path_118" class="st8" d="M389.63,219.26c0.07,0.4,0.31,0.75,0.65,0.98c0.42,0.35,0.8,0.74,1.15,1.16
		c0.5,0.69,0.88,1.46,1.14,2.28c0.38,1.02,0.69,2.06,0.95,3.11c-2.51,1.16-5.36,1.11-8.03,1.87c-1.15,0.3-2.19,0.92-3.01,1.78
		c-0.83,0.87-1.23,2.06-1.11,3.26c0,0.19,0.15,0.34,0.34,0.34c0.02,0,0.05,0,0.07-0.01c0.67,0,1.31-0.22,1.84-0.63
		c0.52-0.41,0.99-0.87,1.41-1.38c0.26-0.34,0.61-0.59,1-0.74c1.45-0.44,3.01-0.42,4.52-0.44c2.25-0.04,4.5-0.22,6.73-0.53
		c0.3,0.04,0.57-0.18,0.6-0.47c0.01-0.04,0.01-0.09,0-0.13c0.22-2.95-0.88-5.83-2.01-8.57c-0.45-1.1-0.92-2.19-1.39-3.28
		c-0.39-1.06-0.97-2.05-1.71-2.91c-0.28-0.31-0.62-0.57-1-0.74c-0.43-0.15-0.89-0.24-1.34-0.25c-0.73-0.1-1.47-0.11-2.2-0.04
		c-0.12,0.37-0.19,0.75-0.21,1.14c0.04,1.35,0.63,2.62,1.21,3.84C389.3,219.07,389.51,219.08,389.63,219.26z"/>
	<path id="Path_119" class="st10" d="M381.59,221.79c-0.34,0.58-0.51,1.24-0.5,1.91c0,0.26,0.04,0.53,0.12,0.78
		c0.28,0.72,0.87,1.27,1.6,1.5"/>
	<path id="Path_120" class="st2" d="M384.15,205.37c-0.25,0-0.49,0.04-0.73,0.12c-0.66-1-2.2-1.69-4.01-1.69
		c-2.4,0-4.34,1.24-4.34,2.76s1.94,2.75,4.34,2.75c0.9,0.01,1.79-0.18,2.6-0.55c0.57,1.17,1.98,1.66,3.16,1.1s1.67-1.97,1.1-3.15
		C385.87,205.88,385.04,205.37,384.15,205.37L384.15,205.37z"/>
	<path id="Path_121" class="st4" d="M384.34,209.49c-0.91,0-1.74-0.52-2.13-1.34c-0.82,0.37-1.71,0.56-2.6,0.55
		c-2.39,0-4.34-1.23-4.34-2.75c-0.01-0.09-0.01-0.18,0-0.27c-0.14,0.27-0.22,0.56-0.22,0.86c0,1.5,1.94,2.75,4.34,2.75
		c0.9,0.01,1.79-0.18,2.6-0.55c0.57,1.17,1.98,1.66,3.16,1.1c0.67-0.32,1.16-0.95,1.3-1.68
		C386.06,208.97,385.24,209.49,384.34,209.49z"/>
	<path id="Path_122" class="st4" d="M374.48,205.46c1.37-2.79,4.49-4.27,7.53-3.58c3.33-2.05,7.71-1.02,9.77,2.3
		c0.59,0.95,0.94,2.02,1.03,3.13v-0.59c-0.01-3.91-3.19-7.06-7.11-7.06c-1.31,0-2.6,0.37-3.71,1.05c-3.04-0.7-6.16,0.78-7.53,3.58
		c-1.67,1.58-2.6,3.79-2.55,6.08v0.59C372,208.86,372.92,206.88,374.48,205.46z"/>
	<path id="Path_123" class="st6" d="M419.72,206.96c1.31-2.42-0.18-5.38-1.89-7.54c-1.71-2.16-3.79-4.4-3.74-7.15
		c0.06-3.94,4.27-6.28,7.63-8.37c2.49-1.56,4.79-3.4,6.84-5.5c0.86-0.8,1.58-1.75,2.11-2.81c0.69-1.55,0.67-3.3,0.63-5
		c-0.15-5.63-0.43-11.26-0.84-16.88"/>
	<path id="Path_124" class="st3" d="M436.85,153.41c-0.1-2.09-1.26-3.99-3.08-5.04l-1.38,2.73l0.04-3.3
		c-0.66-0.2-1.35-0.28-2.03-0.24c-3.41,0.16-6.04,3.04-5.88,6.44c0.16,3.4,3.05,6.02,6.46,5.86
		C434.37,159.69,437.01,156.81,436.85,153.41C436.85,153.41,436.85,153.41,436.85,153.41L436.85,153.41z"/>
	<path id="Path_125" class="st3" d="M425.83,195.08c-1.56,3.02-5.28,4.21-8.32,2.66c-3.03-1.55-4.23-5.27-2.67-8.29
		c1.56-3.02,5.28-4.21,8.32-2.66c1.37,0.7,2.43,1.89,2.97,3.33l-3.86,3.13l4.25-1C426.52,193.24,426.29,194.21,425.83,195.08z"/>
	<path id="Path_126" class="st3" d="M422.78,183.13c-3.41,0.16-6.3-2.46-6.47-5.85c-0.14-2.87,1.73-5.45,4.51-6.23l-0.03,2.54
		l1.4-2.76l0,0c3.41-0.16,6.3,2.47,6.46,5.86c0.16,3.4-2.47,6.28-5.88,6.44L422.78,183.13z"/>
	<path id="Path_127" class="st3" d="M437.78,173.19c-3.41,0.17-6.31-2.44-6.48-5.83c-0.17-3.4,2.45-6.29,5.85-6.46
		c1.17-0.06,2.34,0.22,3.36,0.79l-1.09,3l2.25-2.15c1.21,1.09,1.93,2.62,2.01,4.25c0.03,0.57-0.02,1.14-0.16,1.7
		C442.87,171.15,440.53,173.07,437.78,173.19z"/>
	<path id="Path_128" class="st4" d="M436.02,155.05c-1.43,0.16-2.82,0.6-4.25,0.69c-1.43,0.09-3.01-0.25-3.91-1.37
		c-0.42-0.64-0.8-1.31-1.14-2c-0.39-0.61-0.93-1.11-1.56-1.46c-1.55,3.03-0.35,6.74,2.69,8.28c3.04,1.55,6.76,0.35,8.31-2.68
		c0.25-0.48,0.43-0.99,0.54-1.52C436.48,155.01,436.25,155.03,436.02,155.05z"/>
	<path id="Path_129" class="st4" d="M437.78,173.19c-3.41,0.16-6.3-2.47-6.46-5.87c-0.05-1,0.15-2,0.58-2.91
		c0.49,0.33,0.91,0.75,1.24,1.24c0.37,0.7,0.78,1.38,1.22,2.03c0.96,1.13,2.6,1.5,4.09,1.43c1.49-0.07,2.93-0.5,4.42-0.63
		c0.21,0,0.42-0.03,0.62-0.04C442.87,171.12,440.54,173.06,437.78,173.19z"/>
	<path id="Path_130" class="st4" d="M422.78,183.13c-3.4,0.17-6.3-2.45-6.47-5.84c-0.05-0.98,0.14-1.95,0.54-2.84
		c0.51,0.34,0.95,0.76,1.3,1.25c0.5,0.68,0.78,1.45,1.34,2.08c1.04,1.16,2.8,1.57,4.37,1.53c1.58-0.03,3.01-0.41,4.52-0.53
		C427.63,181.26,425.38,183,422.78,183.13z"/>
	<path id="Path_131" class="st4" d="M425.83,195.08c-1.61,3-5.35,4.13-8.37,2.53c-2.71-1.44-3.95-4.65-2.9-7.53
		c0.51,0.33,0.97,0.74,1.35,1.2c0.59,0.71,0.98,1.5,1.66,2.19c1.26,1.24,3.3,1.74,5.12,1.79
		C423.75,195.27,424.79,195.2,425.83,195.08z"/>
	<path id="Path_132" class="st6" d="M499.51,282.97c1.31-2.42-0.18-5.38-1.89-7.54c-1.71-2.16-3.79-4.4-3.74-7.15
		c0.06-3.94,4.27-6.28,7.63-8.37c2.49-1.56,4.79-3.4,6.84-5.5c0.86-0.8,1.58-1.75,2.11-2.81c0.69-1.55,0.67-3.3,0.63-5
		c-0.14-5.63-0.42-11.26-0.84-16.88"/>
	<path id="Path_133" class="st3" d="M516.64,229.42c-0.1-2.09-1.26-3.99-3.08-5.04l-1.38,2.73l0.04-3.3
		c-0.65-0.19-1.33-0.28-2.01-0.24c-3.41,0.16-6.04,3.04-5.88,6.44c0.16,3.4,3.05,6.02,6.46,5.86c3.41-0.16,6.04-3.04,5.88-6.44
		c0,0,0,0,0,0L516.64,229.42z"/>
	<path id="Path_134" class="st3" d="M505.62,271.1c-1.56,3.02-5.28,4.21-8.32,2.66s-4.23-5.27-2.67-8.29
		c1.56-3.02,5.28-4.21,8.32-2.66c1.37,0.7,2.43,1.89,2.96,3.33l-3.86,3.13l4.25-1C506.31,269.25,506.08,270.22,505.62,271.1
		L505.62,271.1z"/>
	<path id="Path_135" class="st3" d="M502.57,259.14c-3.41,0.16-6.3-2.46-6.47-5.85c-0.14-2.87,1.73-5.45,4.51-6.23l-0.03,2.54
		l1.4-2.76l0,0c3.41-0.16,6.3,2.47,6.46,5.86c0.16,3.4-2.48,6.28-5.88,6.44L502.57,259.14z"/>
	<path id="Path_136" class="st3" d="M517.57,249.2c-3.41,0.17-6.31-2.44-6.48-5.83c-0.17-3.4,2.45-6.29,5.85-6.46
		c1.17-0.06,2.34,0.22,3.36,0.79l-1.09,3l2.25-2.15c1.21,1.09,1.93,2.62,2.01,4.25c0.03,0.57-0.02,1.14-0.16,1.7
		C522.66,247.16,520.32,249.08,517.57,249.2z"/>
	<path id="Path_137" class="st4" d="M515.81,231.06c-1.43,0.16-2.82,0.6-4.25,0.69c-1.43,0.09-3.01-0.25-3.91-1.37
		c-0.42-0.64-0.8-1.31-1.14-2c-0.39-0.61-0.93-1.11-1.56-1.46c-1.55,3.03-0.35,6.74,2.69,8.28c3.04,1.55,6.76,0.35,8.31-2.68
		c0.25-0.48,0.43-0.99,0.54-1.52C516.27,231.02,516.04,231.04,515.81,231.06z"/>
	<path id="Path_138" class="st4" d="M517.57,249.2c-3.41,0.16-6.3-2.47-6.46-5.87c-0.05-1,0.15-2,0.58-2.91
		c0.49,0.33,0.91,0.75,1.24,1.24c0.37,0.7,0.78,1.38,1.22,2.03c0.96,1.13,2.6,1.5,4.09,1.43c1.49-0.07,2.93-0.5,4.42-0.62
		c0.21,0,0.42-0.03,0.62-0.04C522.66,247.13,520.33,249.07,517.57,249.2z"/>
	<path id="Path_139" class="st4" d="M502.57,259.14c-3.4,0.17-6.3-2.45-6.47-5.84c-0.05-0.98,0.14-1.95,0.54-2.84
		c0.51,0.34,0.95,0.76,1.3,1.25c0.5,0.68,0.78,1.45,1.34,2.08c1.04,1.16,2.8,1.57,4.37,1.53c1.58-0.04,3.01-0.41,4.52-0.53
		C507.42,257.28,505.18,259.01,502.57,259.14z"/>
	<path id="Path_140" class="st4" d="M505.62,271.09c-1.61,3-5.36,4.13-8.37,2.52c-2.71-1.44-3.94-4.65-2.9-7.52
		c0.51,0.33,0.97,0.74,1.35,1.2c0.59,0.72,1,1.5,1.66,2.19c1.26,1.24,3.3,1.74,5.12,1.79C503.54,271.28,504.58,271.22,505.62,271.09
		z"/>
	
		<linearGradient id="Path_141_1_" gradientUnits="userSpaceOnUse" x1="-265.1025" y1="680.1796" x2="-265.1025" y2="680.5948" gradientTransform="matrix(161.463 0 0 -121.4732 43010.4844 82872.3984)">
		<stop  offset="0" style="stop-color:#808080;stop-opacity:0.251"/>
		<stop  offset="0.54" style="stop-color:#808080;stop-opacity:0.122"/>
		<stop  offset="1" style="stop-color:#808080;stop-opacity:0.102"/>
	</linearGradient>
	<path id="Path_141" class="st11" d="M239.87,212.41c0.01-1.56-0.71-3.03-1.96-3.96c-0.02-2.8-2.05-5.18-4.82-5.64
		c-0.42-2.01-1.88-3.64-3.84-4.28l0,0c-0.23-0.07-0.47-0.13-0.71-0.17h-0.85c-2.75,0.06-5.06,2.1-5.46,4.81
		c-1.76-0.41-3.37,0.12-3.67,1.23c-0.07,0.29-0.06,0.61,0.05,0.89c0.3,0.86,1.28,1.69,2.59,2.09l0.17,0.05l0.26,0.07h0.06
		c-0.28,0.59-0.42,1.24-0.42,1.9c-0.01,1.64,0.9,3.14,2.36,3.9l-0.12,0.07c-0.16,0.15-0.29,0.33-0.38,0.53
		c-0.32,0.56-0.56,1.15-0.74,1.77c-0.12,0.53-0.15,1.08-0.3,1.61c-0.29,0.97-1.03,1.78-1.12,2.79c-0.04,0.45,0.03,1-0.29,1.29
		c-0.08,0.07-0.16,0.13-0.26,0.18c-0.22,0.16-0.41,0.36-0.56,0.59c-0.1,0.21-0.23,0.4-0.39,0.56c-0.29,0.22-0.77,0.2-0.91,0.53
		c-0.14,0.34,0.23,0.73,0.14,1.1c-0.09,0.36-0.4,0.44-0.62,0.64c-0.26,0.28-0.45,0.63-0.54,1c-0.96,0.18-1.95-0.07-2.71-0.69
		c0.13,0.32,0.22,0.66,0.28,1c-0.44-0.33-0.93-0.58-1.46-0.73c-0.59-0.27-1.12-0.66-1.56-1.15l0.83-0.12l-3.68-5.6l-1.09-0.23
		l0.97,1.87c-0.16,0.07-0.29,0.22-0.33,0.39c-0.05,0.21-0.06,0.42-0.04,0.64c0.05,0.51,0.13,1.01,0.25,1.5l0.28,1.31
		c0.03,0.12,0.05,0.24,0.09,0.36c-0.37-0.02-0.73,0.02-1.09,0.12c-0.73-0.27-1.49-0.45-2.26-0.54c-0.16-0.03-0.34-0.03-0.5,0
		c-0.19,0.09-0.35,0.22-0.48,0.38c-0.63,0.73-1.2,1.52-1.68,2.36c-2.01,3.43-4.62,6.43-7.1,9.53c-1.71,0.69-3.43,1.35-5.15,2
		l-3.7,1.41c-0.72,0.33-1.51,0.5-2.3,0.5c-0.35,0-0.79-0.08-1,0.23c-0.1,0.16-0.17,0.32-0.23,0.5l-0.38,0.04l0,0
		c-0.18-0.6-0.48-1.16-0.89-1.63c-0.18,0.03-0.34,0.15-0.42,0.32c-0.09,0.17-0.15,0.35-0.25,0.5c-0.2,0.29-0.54,0.43-0.79,0.68
		s-0.4,0.63-0.67,0.88c-0.37,0.27-0.8,0.44-1.26,0.5c-0.69,0.16-1.35,0.41-1.97,0.75c-0.23,0.14-0.47,0.25-0.73,0.34
		c-0.28,0.05-0.57,0.07-0.86,0.03l-1.96-0.14c-0.18-0.02-0.35-0.01-0.53,0.02c-0.4,0.16-0.65,0.57-0.62,1
		c0.05,0.43,0.28,0.82,0.62,1.08c0.34,0.25,0.71,0.44,1.11,0.58c1.69,0.66,3.44,1.17,5.22,1.54v0.39c1.25,0.63,2.62,0.95,4.01,0.95
		c0.1,0.01,0.21-0.01,0.3-0.06c0.13-0.1,0.22-0.23,0.25-0.39c0.42-1.24,0.68-2.53,0.78-3.83l0,0c0.25-0.02,0.49-0.08,0.71-0.18
		c0.67-0.19,1.34,0.27,2.04,0.35c0.86,0.1,1.65-0.4,2.46-0.71l0.35-0.12c-0.23,0.3-0.51,0.56-0.81,0.78
		c-0.34,0.24-0.71,0.42-1.04,0.67c-0.28,0.25-0.57,0.48-0.88,0.68c-0.22,0.1-0.45,0.19-0.68,0.26c-0.34,0.13-0.67,0.29-0.97,0.5
		c-0.27,0.16-0.49,0.38-0.66,0.64c-0.17,0.27-0.19,0.61-0.05,0.9c0.14,0.24,0.38,0.4,0.65,0.45c0.26,0.04,0.53,0.04,0.8,0
		c1.06-0.08,2.12-0.18,3.18-0.27c0.45-0.03,0.89-0.09,1.33-0.19c0.23-0.06,0.46-0.13,0.69-0.2c0.4-0.1,0.8-0.16,1.21-0.18
		c0.12-0.01,0.24,0,0.35,0.03c0.25,0.08,0.42,0.33,0.67,0.38c0.17,0.02,0.34,0,0.5-0.06c0.77-0.17,1.56-0.25,2.35-0.25
		c0.36,0.04,0.71-0.11,0.91-0.41c0.16-0.32-0.13-0.83-0.26-1.26c-0.07-0.27-0.1-0.55-0.11-0.83c-0.06-0.69-0.26-1.36-0.58-1.97
		c-0.17-0.29-0.32-0.59-0.44-0.9c1.52-0.57,2.97-1.31,4.33-2.19c0.75-0.54,1.58-0.94,2.47-1.18c1.05-0.12,2.11,0,3.1,0.36
		c2.41,0.7,4.79,1.52,7.11,2.47c1.11,0.46,2.21,0.94,3.36,1.28c0.33,0.45,0.74,0.84,1.19,1.16c0.79,0.44,1.68,0.69,2.58,0.71
		c1.21,0.11,2.42,0.15,3.64,0.13c0.93,0.04,1.86-0.13,2.71-0.5c0.2-0.1,0.39-0.23,0.57-0.37c0.66,0.06,1.32-0.18,1.79-0.66
		c0.66-0.56,1.13-1.31,1.36-2.14c0.3-1.14,0.07-2.5,0.77-3.41c0.19-0.25,0.43-0.45,0.62-0.7c0.22-0.34,0.34-0.75,0.32-1.16
		c0.01-0.02,0.02-0.03,0.03-0.04c0.15-0.37,0.26-0.75,0.3-1.15c0.09-0.31,0.2-0.62,0.33-0.91c0.36-0.88,0.67-1.78,0.93-2.7
		c0.18-0.61,0.33-1.23,0.43-1.85c0.08-0.5,0.12-1,0.16-1.5c0.05-0.79,0.21-1.57,0.46-2.32c0.63-1.78,0.98-3.65,1.05-5.54v-0.11
		c1.92-0.22,3.35-1.86,3.3-3.78c0-0.56-0.12-1.11-0.35-1.62C239.65,214.16,239.88,213.3,239.87,212.41z M221.92,234.15
		c0.06,0.2,0.12,0.38,0.19,0.58c-0.3-0.29-0.58-0.58-0.88-0.87c0.12,0.04,0.24,0.08,0.35,0.12c0.12,0.05,0.23,0.11,0.33,0.17
		L221.92,234.15z M220.5,233.19c-1.74-1.5-3.74-2.67-5.52-4.12c0.97,0.47,1.91,1.03,2.85,1.56c1.11,0.63,2.23,1.24,3.37,1.82
		c-0.19,0.29-0.43,0.54-0.71,0.74H220.5z M221.24,229.41l0.08-0.08v0.59l-0.47-0.16c0.13-0.11,0.25-0.23,0.37-0.35L221.24,229.41z
		 M205.96,233.46c0.71-0.8,1.33-1.68,1.85-2.63c0.69,1.2,1.81,2.06,2.75,3.07C209.04,233.71,207.5,233.54,205.96,233.46
		L205.96,233.46z"/>
	<path id="Path_142" class="st12" d="M208.43,218.9l1.09,0.22l3.73,5.5l-1.64,0.22L208.43,218.9z"/>
	<path id="Path_143" class="st13" d="M181.91,241.19c0.3,0.97,0.66,1.92,1.09,2.84c1.24-0.26,2.45-0.61,3.64-1.04
		c-0.23-0.35-0.49-0.68-0.76-1c-0.29-0.32-0.64-0.59-1.03-0.79c-0.41-0.09-0.84-0.09-1.25,0
		C183.04,241.19,182.47,241.2,181.91,241.19z"/>
	<path id="Path_144" class="st12" d="M184.86,242.66c-0.6-0.27-1.05-0.78-1.24-1.41c-0.19-0.62-0.51-1.2-0.95-1.69
		c-0.19,0.03-0.35,0.14-0.42,0.32c-0.09,0.16-0.15,0.34-0.25,0.5c-0.2,0.28-0.55,0.43-0.8,0.66c-0.25,0.24-0.4,0.61-0.67,0.86
		c-0.37,0.27-0.81,0.44-1.27,0.5c-0.7,0.16-1.37,0.4-2.01,0.73c-0.23,0.14-0.48,0.25-0.74,0.33c-0.29,0.04-0.58,0.04-0.86,0
		l-1.98-0.14c-0.17-0.03-0.33-0.03-0.5,0c-0.42,0.15-0.67,0.56-0.63,1c0.05,0.43,0.28,0.81,0.63,1.06c0.34,0.25,0.72,0.44,1.12,0.57
		c1.72,0.65,3.49,1.15,5.3,1.5v0.39c1.26,0.62,2.64,0.94,4.04,0.94c0.1,0.01,0.21-0.01,0.3-0.05c0.13-0.1,0.22-0.23,0.25-0.39
		c0.48-1.38,0.75-2.82,0.83-4.28c0.03-0.37,0-0.74-0.08-1.11c-0.11-0.35,0.26-0.21-0.08-0.35"/>
	<path id="Path_145" class="st12" d="M222.78,235.23c-5.86,0.35-11.65-1.36-17.52-1.54c-0.73-0.05-1.46,0-2.18,0.13
		c-0.75,0.2-1.47,0.48-2.16,0.83c-3.15,1.46-6.4,2.67-9.66,3.88l-3.74,1.39c-0.73,0.33-1.52,0.5-2.31,0.5c-0.36,0-0.79-0.08-1,0.22
		c-0.61,0.9-0.32,2.22,0.08,3.23c0.13,0.33,0.35,0.68,0.7,0.71c0.25-0.02,0.49-0.08,0.71-0.18c0.68-0.18,1.35,0.27,2.06,0.35
		c0.86,0.09,1.67-0.4,2.48-0.7c1.35-0.5,2.83-0.5,4.26-0.72c2.38-0.4,4.6-1.5,6.66-2.76c0.75-0.53,1.59-0.93,2.48-1.17
		c1.06-0.12,2.12,0,3.12,0.35c2.43,0.68,4.83,1.5,7.17,2.43c1.22,0.53,2.47,0.98,3.74,1.37c2.78,0.73,5.72,0.55,8.4-0.5
		c0.94-0.37,1.96-1,2.01-2.03c0.03-0.58-0.42-1.08-0.71-1.58c-0.19-0.32-0.39-0.63-0.59-0.94
		C225.78,237.07,224.56,235.12,222.78,235.23z"/>
	<path id="Path_146" class="st4" d="M222.78,235.23c-5.86,0.35-11.65-1.36-17.52-1.54c-0.73-0.05-1.46,0-2.18,0.13
		c-0.75,0.2-1.47,0.48-2.16,0.83c-3.15,1.46-6.4,2.67-9.66,3.88l-3.74,1.39c-0.73,0.33-1.52,0.5-2.31,0.5c-0.36,0-0.79-0.08-1,0.22
		c-0.61,0.9-0.32,2.22,0.08,3.23c0.13,0.33,0.35,0.68,0.7,0.71c0.25-0.02,0.49-0.08,0.71-0.18c0.68-0.18,1.35,0.27,2.06,0.35
		c0.86,0.09,1.67-0.4,2.48-0.7c1.35-0.5,2.83-0.5,4.26-0.72c2.38-0.4,4.6-1.5,6.66-2.76c0.75-0.53,1.59-0.93,2.48-1.17
		c1.06-0.12,2.12,0,3.12,0.35c2.43,0.68,4.83,1.5,7.17,2.43c1.22,0.53,2.47,0.98,3.74,1.37c2.78,0.73,5.72,0.55,8.4-0.5
		c0.94-0.37,1.96-1,2.01-2.03c0.03-0.58-0.42-1.08-0.71-1.58c-0.19-0.32-0.39-0.63-0.59-0.94
		C225.78,237.07,224.56,235.12,222.78,235.23z"/>
	<path id="Path_147" class="st13" d="M193.16,241.46c0.92,0.31,1.84,0.6,2.77,0.86c0.5-0.86,1.51-1.45,1.72-2.43
		c0.01-0.04,0.01-0.09,0-0.13c-0.02-0.04-0.06-0.07-0.11-0.1c-0.67-0.37-1.41-0.58-2.18-0.64c-0.6-0.03-0.88,0.59-1.15,1.03
		C194.12,240.26,193.41,241.56,193.16,241.46z"/>
	<path id="Path_148" class="st12" d="M194.45,240.85c-0.55-0.09-1.04-0.41-1.35-0.89c-0.12-0.23-0.27-0.53-0.53-0.5
		s-0.35,0.3-0.4,0.54c-0.17,0.89-0.43,1.75-0.76,2.6c-0.33,0.85-0.89,1.58-1.62,2.13c-0.34,0.24-0.72,0.41-1.05,0.66
		c-0.28,0.25-0.58,0.47-0.89,0.67c-0.22,0.1-0.45,0.18-0.68,0.25c-0.34,0.13-0.67,0.3-0.97,0.5c-0.27,0.16-0.5,0.37-0.67,0.64
		c-0.17,0.27-0.19,0.6-0.05,0.89c0.14,0.23,0.38,0.39,0.65,0.44c0.27,0.04,0.54,0.04,0.81,0c1.07-0.08,2.14-0.17,3.21-0.26
		c0.45-0.03,0.9-0.09,1.34-0.19l0.7-0.19c0.4-0.11,0.81-0.17,1.22-0.18c0.12-0.01,0.24,0,0.36,0.03c0.25,0.08,0.42,0.33,0.68,0.37
		c0.17,0.02,0.34-0.01,0.5-0.07c0.78-0.17,1.58-0.25,2.37-0.24c0.36,0.04,0.71-0.11,0.92-0.4c0.2-0.39-0.13-0.83-0.27-1.25
		c-0.06-0.27-0.1-0.54-0.11-0.82c-0.06-0.68-0.26-1.34-0.59-1.94c-0.27-0.5-0.64-1.05-0.45-1.58c0.09-0.17,0.16-0.35,0.18-0.55
		C196.92,240.66,194.94,240.96,194.45,240.85z"/>
	<path id="Path_149" class="st13" d="M213.99,225.86c-1.04-0.45-1.87-1.28-2.34-2.31c-0.1-0.22-0.18-0.46-0.27-0.68
		c-0.31-0.75-0.78-1.41-1.39-1.94c-0.13-0.14-0.31-0.22-0.5-0.22c-0.19,0.06-0.33,0.21-0.37,0.41c-0.06,0.2-0.07,0.42-0.04,0.63
		c0.05,0.49,0.13,0.98,0.25,1.46l0.29,1.29c0.04,0.2,0.1,0.39,0.18,0.58c0.12,0.22,0.28,0.41,0.48,0.57
		c0.26,0.24,0.53,0.47,0.79,0.7c0.15,0.13,0.32,0.25,0.5,0.35c0.28,0.13,0.58,0.22,0.89,0.26c1.2,0.16,2.34,0.59,3.33,1.28
		c0,0,0-0.86,0-0.96c-0.01-0.25-0.1-0.49-0.25-0.7C215.06,226.24,214.54,226,213.99,225.86z"/>
	<path id="Path_150" class="st4" d="M213.99,225.86c-1.04-0.45-1.87-1.28-2.34-2.31c-0.1-0.22-0.18-0.46-0.27-0.68
		c-0.31-0.75-0.78-1.41-1.39-1.94c-0.13-0.14-0.31-0.22-0.5-0.22c-0.19,0.06-0.33,0.21-0.37,0.41c-0.06,0.2-0.07,0.42-0.04,0.63
		c0.05,0.49,0.13,0.98,0.25,1.46l0.29,1.29c0.04,0.2,0.1,0.39,0.18,0.58c0.12,0.22,0.28,0.41,0.48,0.57
		c0.26,0.24,0.53,0.47,0.79,0.7c0.15,0.13,0.32,0.25,0.5,0.35c0.28,0.13,0.58,0.22,0.89,0.26c1.2,0.16,2.34,0.59,3.33,1.28
		c0,0,0-0.86,0-0.96c-0.01-0.25-0.1-0.49-0.25-0.7C215.06,226.24,214.54,226,213.99,225.86z"/>
	<ellipse id="Ellipse_31" class="st12" cx="225.92" cy="214.56" rx="1.43" ry="1.43"/>
	<path id="Path_151" class="st12" d="M225.04,213.7c-0.38-0.09-0.78-0.03-1.12,0.16c-0.16,0.15-0.3,0.32-0.39,0.53
		c-0.32,0.55-0.57,1.13-0.74,1.74c-0.12,0.5-0.15,1.07-0.31,1.58c-0.29,0.95-1.04,1.76-1.12,2.75c-0.04,0.45,0.04,0.96-0.29,1.27
		c-0.08,0.07-0.17,0.13-0.26,0.19c-0.23,0.15-0.42,0.35-0.56,0.58c-0.1,0.2-0.23,0.39-0.4,0.55c-0.29,0.22-0.77,0.2-0.91,0.5
		s0.23,0.72,0.14,1.08c-0.09,0.36-0.4,0.43-0.63,0.63c-0.27,0.28-0.45,0.63-0.54,1c-0.97,0.19-1.96-0.06-2.73-0.68
		c0.33,1,0.48,2.06,0.43,3.11c0.05,0.34-0.04,0.69-0.25,0.96c1.13,0.08,2.25,0.28,3.35,0.58c0.47,0.16,0.98,0.16,1.46,0
		c0.25-0.14,0.48-0.32,0.67-0.53c0.6-0.61,1.23-1.28,1.38-2.12c0.04-0.48,0.04-0.96,0.02-1.44c0.06-0.59,0.18-1.18,0.37-1.74
		c0.32-1.18,0.53-2.38,0.64-3.59c0.07-0.75,0.72-1.35,1.06-2c0.64-1.27,1.3-2.58,1.35-4C225.67,214.32,225.51,213.75,225.04,213.7z"
		/>
	<path id="Path_152" class="st4" d="M225.04,213.7c-0.38-0.09-0.78-0.03-1.12,0.16c-0.16,0.15-0.3,0.32-0.39,0.53
		c-0.32,0.55-0.57,1.13-0.74,1.74c-0.12,0.5-0.15,1.07-0.31,1.58c-0.29,0.95-1.04,1.76-1.12,2.75c-0.04,0.45,0.04,0.96-0.29,1.27
		c-0.08,0.07-0.17,0.13-0.26,0.19c-0.23,0.15-0.42,0.35-0.56,0.58c-0.1,0.2-0.23,0.39-0.4,0.55c-0.29,0.22-0.77,0.2-0.91,0.5
		s0.23,0.72,0.14,1.08c-0.09,0.36-0.4,0.43-0.63,0.63c-0.27,0.28-0.45,0.63-0.54,1c-0.97,0.19-1.96-0.06-2.73-0.68
		c0.33,1,0.48,2.06,0.43,3.11c0.05,0.34-0.04,0.69-0.25,0.96c1.13,0.08,2.25,0.28,3.35,0.58c0.47,0.16,0.98,0.16,1.46,0
		c0.25-0.14,0.48-0.32,0.67-0.53c0.6-0.61,1.23-1.28,1.38-2.12c0.04-0.48,0.04-0.96,0.02-1.44c0.06-0.59,0.18-1.18,0.37-1.74
		c0.32-1.18,0.53-2.38,0.64-3.59c0.07-0.75,0.72-1.35,1.06-2c0.64-1.27,1.3-2.58,1.35-4C225.67,214.32,225.51,213.75,225.04,213.7z"
		/>
	<path id="Path_153" class="st12" d="M223.7,236.46c-1.22-0.58-2.11-1.66-3.1-2.58c-1.88-1.77-4.19-3-6.17-4.67
		c-1.31-1.1-2.51-2.37-3.93-3.29c-1.27-0.8-2.71-1.3-4.21-1.47c-0.16-0.04-0.34-0.04-0.5,0c-0.19,0.08-0.35,0.21-0.48,0.37
		c-0.64,0.72-1.21,1.5-1.7,2.33c-2.51,4.25-6.08,7.82-9.03,11.77c-0.07,0.08-0.12,0.18-0.15,0.28c-0.01,0.15,0.03,0.31,0.11,0.44
		l0.6,1.17c0.34,0.66,0.88,1.42,1.6,1.3c0.33-0.09,0.62-0.28,0.84-0.54l2.7-2.57l2.83-2.7c1.66-1.58,3.34-3.19,4.43-5.21
		c0.84,1.46,2.34,2.42,3.37,3.75c0.39,0.5,0.71,1.07,1.06,1.61c0.56,0.86,1.19,1.67,1.83,2.5l3.25,4.13
		c0.41,0.58,0.92,1.09,1.51,1.5c0.8,0.43,1.69,0.67,2.6,0.7c1.22,0.11,2.44,0.15,3.67,0.13c0.94,0.04,1.87-0.13,2.73-0.5
		c0.88-0.38,1.45-1.24,1.48-2.2c-0.05-0.48-0.21-0.95-0.47-1.37C227.4,239.26,225.89,237.5,223.7,236.46z"/>
	<ellipse id="Ellipse_32" class="st14" cx="226.8" cy="215.55" rx="1.1" ry="1.1"/>
	<path id="Path_154" class="st13" d="M226.56,214.72c0.25,0.49,0.29,1.06,0.12,1.58c-0.17,0.51-0.41,1-0.71,1.45
		c-0.25,0.47-0.56,0.9-0.92,1.3c1.7,0.08,3.34-0.58,4.83-1.38c1.2-0.65,2.4-1.44,3.05-2.65c-0.39,0.09-0.8,0.02-1.12-0.21
		c-0.32-0.22-0.61-0.49-0.86-0.8l-0.85-0.95c-0.19-0.21-0.36-0.44-0.5-0.69c-0.19-0.34-0.27-0.72-0.23-1.11
		c-0.34,0.35-0.72,0.66-1.12,0.93c-0.61,0.4-1.27,0.68-1.89,1.07c-0.21,0.14-0.69,0.36-0.57,0.64S226.39,214.42,226.56,214.72z"/>
	<path id="Path_155" class="st4" d="M226.56,214.72c0.25,0.49,0.29,1.06,0.12,1.58c-0.17,0.51-0.41,1-0.71,1.45
		c-0.25,0.47-0.56,0.9-0.92,1.3c1.7,0.08,3.34-0.58,4.83-1.38c1.2-0.65,2.4-1.44,3.05-2.65c-0.39,0.09-0.8,0.02-1.12-0.21
		c-0.32-0.22-0.61-0.49-0.86-0.8l-0.85-0.95c-0.19-0.21-0.36-0.44-0.5-0.69c-0.19-0.34-0.27-0.72-0.23-1.11
		c-0.34,0.35-0.72,0.66-1.12,0.93c-0.61,0.4-1.27,0.68-1.89,1.07c-0.21,0.14-0.69,0.36-0.57,0.64S226.39,214.42,226.56,214.72z"/>
	<path id="Path_156" class="st14" d="M226.58,214.89c-0.35,0.49-0.35,1.16,0,1.65c0.05,0.06,0.23,0.44,0.31,0.44
		c0.07-0.01,0.14-0.04,0.19-0.1c0.39-0.4,0.74-0.83,1.07-1.27c0.34-0.45,0.82-0.76,1.36-0.89c0.68-0.03,1.34,0.18,1.88,0.59
		c0.25,0.11,0.47,0.28,0.65,0.5c0.12,0.22,0.19,0.46,0.21,0.71c0.16,1.51,0.23,3.03,0.19,4.55c0.03,1.1-0.04,2.19-0.22,3.28
		c-0.11,0.56-0.27,1.1-0.35,1.67c-0.06,0.5-0.08,1-0.07,1.5v2.09c-0.01,0.38,0.01,0.77,0.08,1.15c0.1,0.46,0.32,0.88,0.46,1.33
		c0.15,0.51,0.25,1.04,0.31,1.57l0.29,2.16c0.09,0.68,0.16,1.42-0.26,2c-0.19,0.24-0.43,0.45-0.62,0.69
		c-0.71,0.92-0.5,2.24-0.78,3.36c-0.23,0.82-0.71,1.56-1.37,2.1c-0.48,0.47-1.14,0.71-1.81,0.64c-0.88-0.17-1.41-1.08-1.65-1.95
		c-0.24-0.87-0.33-1.81-0.85-2.54c-0.48-0.55-1.05-1.02-1.68-1.4c-0.64-0.38-1.11-0.98-1.31-1.7c-0.05-0.32,0-0.64-0.05-0.96
		c-0.1-0.82-0.63-1.52-1.4-1.84c-0.45-0.17-1-0.24-1.26-0.65c0.65-0.4,1.12-1.03,1.32-1.77c0.2-0.73,0.31-1.48,0.32-2.23l0.15-2.5
		c0.07-1.13,0.1-2.24,0.6-3.25c0.22-0.45,0.5-0.88,0.73-1.32c0.31-0.63,0.57-1.27,0.78-1.94c0.36-1.03,0.72-2.06,1.04-3.1
		c0.13-0.5,0.32-0.99,0.57-1.45C225.68,215.55,226.07,214.99,226.58,214.89z"/>
	<path id="Path_157" class="st12" d="M220.98,231.21h0.67l0.14-1c0.02-0.2,0.07-0.4,0.14-0.59c0.11-0.2,0.24-0.39,0.39-0.56
		c0.65-0.93,0.61-2.15,0.77-3.28c0.29-1.49,0.78-2.93,1.47-4.28l1.29-2.88c0.12-0.24,0.21-0.48,0.28-0.74
		c0.05-0.28,0.08-0.56,0.08-0.85c0-0.45,0.14-2.07,0.16-2.5c0-0.17-0.37-0.08-0.44-0.22c-0.16-0.32-0.38,0.55-0.69,0.74
		c-0.29,0.22-0.5,0.52-0.6,0.87c-0.28,0.72-0.45,1.5-0.71,2.22c-0.23,0.75-0.64,1.42-1.21,1.96c-0.27,0.23-0.57,0.42-0.82,0.66
		c-0.8,0.79-0.88,2.05-0.91,3.18C220.96,224.64,220.83,231.21,220.98,231.21z"/>
	<path id="Path_158" class="st12" d="M230.59,213.69c-0.63,0.33-1.07,0.93-1.19,1.63c-0.11,0.69-0.32,1.36-0.6,2
		c-0.81,1.41-2.89,1.82-3.46,3.35c-0.15,0.51-0.22,1.04-0.23,1.58c-0.1,1.1-0.46,2.15-0.57,3.24c-0.06,0.85-0.04,1.7,0.06,2.55
		l0.73,8.61c0.14,1.27,0.07,2.55-0.22,3.79c0.75,0.11,1.51-0.02,2.18-0.36c0.68-0.31,1.3-0.74,1.96-1.1
		c1.12-0.62,2.37-1.06,3.36-1.88c0.18-0.14,0.33-0.31,0.45-0.5c0.15-0.36,0.25-0.74,0.3-1.13c0.09-0.3,0.19-0.6,0.33-0.89
		c0.36-0.87,0.68-1.76,0.94-2.66c0.18-0.6,0.33-1.21,0.43-1.82c0.08-0.5,0.12-1,0.17-1.5c0.05-0.78,0.21-1.54,0.46-2.28
		c0.63-1.76,0.99-3.6,1.06-5.46c0.02-0.27,0-0.54-0.06-0.8c-0.11-0.32-0.26-0.63-0.44-0.91c-0.3-0.57-0.5-1.18-0.76-1.76
		c-0.71-1.27-1.73-2.33-2.97-3.11C231.93,213.88,231.25,213.46,230.59,213.69z"/>
	<path id="Path_159" class="st13" d="M215.43,227.74c-0.52-0.27-0.98-0.62-1.38-1.05c-0.18-0.21-0.33-0.45-0.5-0.66
		c-0.47-0.5-1.07-0.85-1.74-1c-0.66-0.14-1.33-0.21-2.01-0.2c-0.45-0.03-0.91,0.02-1.34,0.16c-0.44,0.15-0.77,0.5-0.89,0.95
		c-0.04,0.55,0.22,1.08,0.68,1.4c0.39,0.32,0.85,0.54,1.35,0.65c0.4,0.07,0.81,0.12,1.22,0.14c2.4,0.25,4.54,1.55,6.64,2.74
		c1.85,1.05,3.73,2.02,5.65,2.92c0.07-0.57,0.11-1.15,0.1-1.73c0-0.43-0.04-1.09-0.44-1.35c-0.58-0.24-1.18-0.42-1.8-0.54
		c-1.24-0.4-2.45-0.89-3.62-1.46C216.69,228.45,216.05,228.12,215.43,227.74z"/>
	<ellipse id="Ellipse_33" class="st13" cx="225.92" cy="209.95" rx="4.28" ry="4.29"/>
	<path id="Path_160" class="st12" d="M231.81,218.55c-0.34,0.48-0.62,1-0.83,1.55c-0.5,1.08-1.35,2-1.77,3.15s-0.42,2.62-1.28,3.55
		c-0.17,0.14-0.3,0.33-0.37,0.54c0,0.13-0.02,0.26-0.04,0.39c-0.12,0.34-0.68,0.35-0.79,0.71c-0.03,0.1,0,0.21-0.05,0.31
		c-0.08,0.23-0.39,0.26-0.58,0.39c-0.42,0.28-0.33,0.93-0.63,1.34c-0.26,0.31-0.67,0.45-1.07,0.37c-0.39-0.08-0.76-0.22-1.11-0.42
		c-0.12-0.07-0.26-0.11-0.4-0.12c-0.17,0.01-0.33,0.06-0.46,0.16c-0.77,0.56-1.2,1.48-1.15,2.43c0.06,0.94,0.28,1.86,0.66,2.72
		c0.04,0.15,0.12,0.29,0.22,0.41c0.31,0.24,0.73,0.27,1.06,0.08c0.33-0.19,0.68-0.35,1.04-0.47c0.66-0.12,1.31,0.34,1.98,0.3
		c0.49-0.07,0.95-0.27,1.33-0.59c0.68-0.4,1.28-0.91,1.8-1.5c0.29-0.38,0.5-0.82,0.76-1.23c0.33-0.5,0.69-0.98,1.08-1.43l2.47-3
		c0.25-0.28,0.47-0.59,0.66-0.91c0.22-0.44,0.39-0.9,0.5-1.38c0.26-0.79,0.43-1.61,0.5-2.45c0.02-0.69-0.05-1.38-0.18-2.05
		c-0.07-0.67-0.24-1.33-0.5-1.96C234.12,218.3,232.82,217.38,231.81,218.55z"/>
	<path id="Path_161" class="st15" d="M240.4,212.96c0.01-1.54-0.73-2.99-1.98-3.9c-0.04-2.79-2.1-5.14-4.86-5.56
		c-0.6-3-3.53-4.94-6.54-4.34c-2.3,0.46-4.07,2.32-4.41,4.63c-1.78-0.4-3.4,0.12-3.7,1.21s0.96,2.5,2.83,3
		c0.59,0.16,1.21,0.23,1.82,0.18c0.88,1.29,2.27,2.16,3.82,2.38c0.46,2.1,2.08,3.76,4.18,4.29c0.29,0.68,0.73,1.29,1.29,1.78v0.42
		c0,1.99,1.61,3.61,3.61,3.61c2,0,3.62-1.61,3.62-3.6c0,0,0-0.01,0-0.01c0-0.55-0.12-1.09-0.35-1.6
		C240.18,214.69,240.41,213.83,240.4,212.96z"/>
	<path id="Path_162" class="st4" d="M220.12,205.24c0.3-1.09,1.92-1.61,3.7-1.21c0.44-2.71,2.77-4.71,5.52-4.74h0.37
		c-0.51-0.15-1.04-0.23-1.58-0.23c-2.75,0.03-5.08,2.03-5.52,4.74c-1.78-0.4-3.4,0.12-3.7,1.21c-0.3,1.09,0.96,2.5,2.83,3
		c0.35,0.1,0.71,0.16,1.07,0.19C221.02,207.65,219.82,206.35,220.12,205.24z"/>
	<path id="Path_163" class="st4" d="M234.04,217.25c-0.01-0.14-0.01-0.27,0-0.41c-0.57-0.48-1.01-1.09-1.29-1.78
		c-2.1-0.52-3.72-2.19-4.18-4.3c-1.56-0.21-2.95-1.08-3.83-2.37c-0.36,0.03-0.71,0.02-1.07-0.03c0.89,1.19,2.22,1.98,3.69,2.19
		c0.46,2.1,2.08,3.76,4.18,4.29c0.29,0.68,0.73,1.29,1.29,1.78v0.42c-0.03,2.02,1.57,3.68,3.6,3.73
		C234.97,220.21,234.02,218.81,234.04,217.25z"/>
	
		<ellipse id="Ellipse_34" transform="matrix(0.7927 -0.6096 0.6096 0.7927 -81.3904 182.3078)" class="st13" cx="227.35" cy="210.82" rx="0.66" ry="0.88"/>
</g>
</svg>
