<svg id="Layer_1" data-name="Layer 1" xmlns="http://www.w3.org/2000/svg" xmlns:xlink="http://www.w3.org/1999/xlink" viewBox="0 0 44.48 47.89"><defs><style>.cls-1{fill:url(#linear-gradient);}.cls-2{fill:url(#linear-gradient-2);}.cls-3{fill:url(#linear-gradient-3);}.cls-4{fill:url(#linear-gradient-4);}.cls-5{fill:url(#linear-gradient-5);}</style><linearGradient id="linear-gradient" x1="-485.88" y1="567.67" x2="-485.88" y2="567.24" gradientTransform="matrix(98.7, 0, 0, -111.26, 48008.07, 63161.63)" gradientUnits="userSpaceOnUse"><stop offset="0" stop-color="#ff4033"/><stop offset="1" stop-color="#db1d57"/></linearGradient><linearGradient id="linear-gradient-2" x1="-482.83" y1="465.16" x2="-482.83" y2="464.73" gradientTransform="matrix(45.67, 0, 0, -3.31, 22102.51, 1561.84)" xlink:href="#linear-gradient"/><linearGradient id="linear-gradient-3" x1="-479.68" y1="463.69" x2="-479.68" y2="463.26" gradientTransform="matrix(29.39, 0, 0, -3.33, 14151.56, 1561.03)" xlink:href="#linear-gradient"/><linearGradient id="linear-gradient-4" x1="-478.9" y1="471.27" x2="-478.9" y2="470.84" gradientTransform="matrix(27.52, 0, 0, -3.3, 13228.25, 1590.86)" xlink:href="#linear-gradient"/><linearGradient id="linear-gradient-5" x1="-474.01" y1="467.77" x2="-474.01" y2="467.34" gradientTransform="matrix(18.4, 0, 0, -3.34, 8768.1, 1589.11)" xlink:href="#linear-gradient"/></defs><path id="Path_32" data-name="Path 32" class="cls-1" d="M73.75,37.54c-.34.32-.66.64-1.07,1-.09-.67-.37-1.16-1-1.26a11.92,11.92,0,0,0-1.69,0V35.87H71.3a1.24,1.24,0,0,0,1.33-1.1v-.06a7.62,7.62,0,0,0,0-1.17.73.73,0,0,0-.75-.71.74.74,0,0,0-.74.73c0,.27,0,.55,0,.86h-9.3V25.57h9.27c0,.67.15,1.28-.51,1.85-1.19,1-2.29,2.17-3.47,3.32L65.38,29l-.77-.73a.82.82,0,0,0-1.16-.13c-.35.32-.3.72.13,1.14l1.14,1.09,1.73,1.66c.51.47.84.48,1.34,0L70.7,29.3l.44-.4c0,.47,0,.83,0,1.2,0,.53.3.86.74.87a.78.78,0,0,0,.76-.86c0-.78,0-1.56,0-2.34a.94.94,0,0,1,.24-.57c.62-.62,1.27-1.21,1.89-1.82.4-.39.44-.8.12-1.11a.79.79,0,0,0-1.16.11c-.34.31-.65.65-1.06,1.06-.27-1.74-1.64-1.24-2.74-1.37V11.3c0-1.05-.3-1.33-1.39-1.33H65.74V8.75c0-.5,0-1,0-1.5A1.23,1.23,0,0,0,65,5.94H31.35a1.34,1.34,0,0,0-.7,1.32q0,20.63,0,41.25c0,1,.31,1.3,1.38,1.3h2.84v2.83c0,.85.35,1.19,1.23,1.19H68.72c.87,0,1.23-.33,1.23-1.16,0-1.18,0-2.37,0-3.63h.79c1.57,0,1.91-.32,1.91-1.85,0-2,0-4,0-5.94a1.3,1.3,0,0,1,.5-1.13c.58-.5,1.12-1,1.67-1.58a.73.73,0,0,0,.17-1l-.07-.07A.78.78,0,0,0,73.75,37.54Zm-10.2,4.92c.5.49,1,1,1.52,1.45l1.42,1.36a.79.79,0,0,0,1.27,0l2.91-2.77c.12-.12.25-.23.43-.39V47.6H68.24a.74.74,0,0,0-.81.65.73.73,0,0,0,.68.78h0l.31,0V52.4H36.37v-41H43a.72.72,0,0,0,.82-.57A.62.62,0,0,0,43.4,10a1.25,1.25,0,0,0-.47-.07H36.07c-.82,0-1.2.35-1.2,1.14V48.38h-2.7v-41H64.24V10H46.49a.7.7,0,1,0,0,1.39h22V24.11H61.87c-1,0-1.46.37-1.56,1.4H52.75c-.2,0-.45,0-.57.07a1.26,1.26,0,0,0-.49.67.58.58,0,0,0,.53.65h0a2.92,2.92,0,0,0,.59,0H60.3v2.69h-17a4.46,4.46,0,0,0-.63.05.64.64,0,0,0-.54.64.63.63,0,0,0,.52.7,2.56,2.56,0,0,0,.62.05H60.31v2.69h-17a5.82,5.82,0,0,0-.59,0,.65.65,0,0,0-.65.64.66.66,0,0,0,.59.74,2.45,2.45,0,0,0,.54,0H59.94a1.06,1.06,0,0,1,.77.28,1.69,1.69,0,0,0,1,.36c2.06,0,4.11,0,6.17,0h.56v1.41H61.73a1.48,1.48,0,0,0-1.13.44.78.78,0,0,1-.5.19c-1.13,0-2.26,0-3.38,0-.61,0-1,.27-.95.71s.37.7,1,.7H60.3V42H42.79a.66.66,0,0,0-.67.64v0a.68.68,0,0,0,.65.72h0a4,4,0,0,0,.49,0h17v2.72H43.19a2.68,2.68,0,0,0-.49,0,.7.7,0,0,0,0,1.38,3.25,3.25,0,0,0,.54,0h17C60.46,48.75,60.8,49,62,49h2.5c.59,0,1-.28,1-.71s-.35-.72-.94-.73H61.83V38.71h9.28c0,.66.17,1.28-.49,1.85-1.21,1-2.32,2.18-3.51,3.32L65,41.8c-.12-.11-.23-.23-.35-.33-.43-.4-.82-.43-1.15-.12s-.31.71.1,1.11Z" transform="translate(-30.64 -5.94)"/><path id="Path_33" data-name="Path 33" class="cls-2" d="M42.75,22.79a4.87,4.87,0,0,0,.54,0H61.55a4,4,0,0,0,.49,0,.65.65,0,0,0,.66-.63.68.68,0,0,0-.58-.75,2,2,0,0,0-.49,0H43.17a2.17,2.17,0,0,0-.57.07.68.68,0,0,0-.43.89.7.7,0,0,0,.58.44Z" transform="translate(-30.64 -5.94)"/><path id="Path_34" data-name="Path 34" class="cls-3" d="M46.74,17.47h5.67c1.94,0,3.88,0,5.82,0a.73.73,0,0,0,.8-.65.06.06,0,0,0,0,0,.78.78,0,0,0-.81-.72H46.89a2.68,2.68,0,0,0-.49,0,.72.72,0,0,0-.6.82.73.73,0,0,0,.07.19A.84.84,0,0,0,46.74,17.47Z" transform="translate(-30.64 -5.94)"/><path id="Path_35" data-name="Path 35" class="cls-4" d="M43,39.33H53.6a1.27,1.27,0,0,0,.34,0,.68.68,0,0,0,.55-.81.59.59,0,0,0-.17-.33,1.26,1.26,0,0,0-.75-.24c-1.75,0-3.49,0-5.24,0H43c-.62,0-1,.36-.86.86S42.59,39.33,43,39.33Z" transform="translate(-30.64 -5.94)"/><path id="Path_36" data-name="Path 36" class="cls-5" d="M43,26.94h6.45c.6,0,.95-.27.95-.71s-.36-.72-.95-.72c-.81,0-1.62,0-2.44,0-1.33,0-2.67,0-4,0-.63,0-1,.36-.88.86S42.58,26.94,43,26.94Z" transform="translate(-30.64 -5.94)"/></svg>