<svg id="Layer_1" data-name="Layer 1" xmlns="http://www.w3.org/2000/svg" xmlns:xlink="http://www.w3.org/1999/xlink" viewBox="0 0 56.34 56.44"><defs><style>.cls-1{fill:url(#linear-gradient);}.cls-2{fill:url(#linear-gradient-2);}.cls-3{fill:url(#linear-gradient-3);}.cls-4{fill:url(#linear-gradient-4);}.cls-5{fill:url(#linear-gradient-5);}.cls-6{fill:url(#linear-gradient-6);}</style><linearGradient id="linear-gradient" x1="626.64" y1="-126.54" x2="626.64" y2="-126.98" gradientTransform="matrix(0.23, 0, 0, -0.5, -141.11, -47.92)" gradientUnits="userSpaceOnUse"><stop offset="0" stop-color="#ff4033"/><stop offset="1" stop-color="#db1d57"/></linearGradient><linearGradient id="linear-gradient-2" x1="-486.77" y1="568.16" x2="-486.77" y2="567.73" gradientTransform="matrix(129.01, 0, 0, -129.23, 62832.27, 73424.95)" xlink:href="#linear-gradient"/><linearGradient id="linear-gradient-3" x1="-477.75" y1="554.01" x2="-477.75" y2="553.58" gradientTransform="matrix(20.78, 0, 0, -20.78, 9960.5, 11524.41)" xlink:href="#linear-gradient"/><linearGradient id="linear-gradient-4" x1="-476.79" y1="554.11" x2="-476.79" y2="553.67" gradientTransform="matrix(20.89, 0, 0, -20.89, 9978.69, 11589.5)" xlink:href="#linear-gradient"/><linearGradient id="linear-gradient-5" x1="-477.74" y1="561.49" x2="-477.74" y2="561.06" gradientTransform="matrix(20.77, 0, 0, -33.37, 9953.89, 18779.58)" xlink:href="#linear-gradient"/><linearGradient id="linear-gradient-6" x1="-478.8" y1="554.08" x2="-478.8" y2="553.65" gradientTransform="matrix(20.87, 0, 0, -20.87, 10040.96, 11574.7)" xlink:href="#linear-gradient"/></defs><g id="Group_3" data-name="Group 3"><path id="Path_22" data-name="Path 22" class="cls-1" d="M4.79,15.35v.22C4.92,15.5,4.94,15.42,4.79,15.35Z" transform="translate(-4.79 -1.56)"/><path id="Path_23" data-name="Path 23" class="cls-2" d="M60.34,13.08A16.18,16.18,0,0,0,44.72,1.57c-7.84,0-15.68,0-23.52,0A14.73,14.73,0,0,0,17.34,2a16.23,16.23,0,0,0-12,11.88,20,20,0,0,1-.51,2.32v.44a.14.14,0,0,1,0,.2h0l0,0V17h0v.66h0v.66a.84.84,0,0,1,0,.66v.55c.12.66.07,1.35.23,2a16.13,16.13,0,0,0,2.78,6.12,2.14,2.14,0,0,1,.47,1.42c0,3.54,0,7.09,0,10.63a2.93,2.93,0,0,0,2.33,2.89,2.82,2.82,0,0,0,2.79-.89c2-2.08,3.92-4.22,5.83-6.37a2.08,2.08,0,0,1,1.93-.9,5.77,5.77,0,0,0,1.1,0c.36,0,.55.12.53.51s0,.7,0,1a.68.68,0,0,1-.36.63A4.94,4.94,0,0,0,20,41.24c0,3.87,0,7.75,0,11.62a6,6,0,0,0,.2,1.69A4.37,4.37,0,0,0,23.94,58H41.86s.07-.08.12-.09a4.53,4.53,0,0,0,3.7-4.6c0-4.17,0-8.34,0-12.51a4,4,0,0,0-1.74-3.6,2,2,0,0,1-1-2.15.74.74,0,0,0,0-.21c-.08-.44.12-.51.52-.51A19.63,19.63,0,0,0,48,34a15.92,15.92,0,0,0,9-5.19A15.85,15.85,0,0,0,60.34,13.08Zm-16.5,28h0V53.25a2.74,2.74,0,0,1-2.06,2.82,3.68,3.68,0,0,1-1,.08H32.93c-2.62,0-5.24,0-7.86,0a2.86,2.86,0,0,1-3-3.06c0-4,0-8,0-12.06a2.76,2.76,0,0,1,3-3.06H40.8a2.77,2.77,0,0,1,3,3.09ZM41.1,35.9c0,.25-.15.24-.32.25-1.46.1-1.47.1-1.46-1.37a8.74,8.74,0,0,0-.64-4.13,6.35,6.35,0,0,0-12,1.81,20.63,20.63,0,0,0-.08,3.24c0,.37-.1.46-.46.46-1.33,0-1.33,0-1.33-1.34v-.6a8.1,8.1,0,0,1,1.63-5.68,7.77,7.77,0,0,1,8.09-3.12,7.87,7.87,0,0,1,6.32,5.94,18.19,18.19,0,0,1,.26,4.54ZM29.71,34.34H33c1.34,0,2.67,0,4,0,.34,0,.47.07.47.45,0,1.37,0,1.37-1.35,1.37-2.4,0-4.79,0-7.19,0-.4,0-.53-.08-.53-.51,0-1.31,0-1.31,1.3-1.31ZM28.65,32h0a4.51,4.51,0,0,1,8.62.12c.11.37,0,.39-.3.39H32.91c-1.3,0-2.6,0-3.89,0-.49,0-.48-.14-.37-.52ZM56.7,26.24h0a14.25,14.25,0,0,1-8.89,6,20.26,20.26,0,0,1-4.59.35c-.27,0-.34-.13-.37-.36a10,10,0,0,0-19.78-.08c0,.37-.18.45-.51.44-.95-.05-1.91,0-2.86-.1a.88.88,0,0,0-.79.35c-2.23,2.45-4.48,4.9-6.72,7.35a1.25,1.25,0,0,1-1.07.56,1,1,0,0,1-.84-1.11h0V32.89c0-1.58,0-3.16,0-4.74a1.33,1.33,0,0,0-.31-.9,14,14,0,0,1-3.14-6.9A14.59,14.59,0,0,1,18.22,3.74a15.6,15.6,0,0,1,3.27-.29H33v0c4.16,0,8.33-.06,12.48,0a13.57,13.57,0,0,1,8.62,3.37A14.56,14.56,0,0,1,56.7,26.24Z" transform="translate(-4.79 -1.56)"/><path id="Path_24" data-name="Path 24" class="cls-3" d="M33,12.07h0a4.54,4.54,0,1,0,4.55,4.53A4.54,4.54,0,0,0,32.93,12.07Zm2.7,4.58a2.72,2.72,0,0,1-5.43,0v0a2.72,2.72,0,1,1,5.43,0h0Z" transform="translate(-4.79 -1.56)"/><path id="Path_25" data-name="Path 25" class="cls-4" d="M16.61,12.08h0a4.56,4.56,0,1,0,4.58,4.54A4.56,4.56,0,0,0,16.57,12.08Zm0,7.25h0a2.66,2.66,0,0,1-2.69-2.64v0a2.7,2.7,0,0,1,2.67-2.74h0a2.73,2.73,0,0,1,2.71,2.69,2.7,2.7,0,0,1-2.69,2.72Z" transform="translate(-4.79 -1.56)"/><path id="Path_26" data-name="Path 26" class="cls-5" d="M35.42,40.5A4.54,4.54,0,0,0,30,47.71a.78.78,0,0,1,.28.67c0,1.83,0,3.67,0,5.5,0,.33,0,.48.43.48,1.56,0,3.12,0,4.68,0,.3,0,.4-.08.39-.4,0-1,0-1.9,0-2.86s0-1.76,0-2.64a1,1,0,0,1,.34-.8,4.54,4.54,0,0,0,.24-6.43,4.27,4.27,0,0,0-.86-.73Zm-.78,5.9a1.63,1.63,0,0,0-.8,1.65c.06,1.34,0,2.68,0,4,0,.33-.07.43-.42.43-1.37,0-1.37,0-1.37-1.35V49.73c0-.75,0-1.51,0-2.26a.77.77,0,0,0-.42-.78A2.7,2.7,0,1,1,34.29,42a2.76,2.76,0,0,1,1,.9,2.6,2.6,0,0,1-.61,3.53Z" transform="translate(-4.79 -1.56)"/><path id="Path_27" data-name="Path 27" class="cls-6" d="M49.32,12.08a4.56,4.56,0,1,0,4.54,4.57h0A4.55,4.55,0,0,0,49.32,12.08ZM52,16.64a2.67,2.67,0,0,1-2.64,2.69h0a2.71,2.71,0,0,1-2.74-2.68v0a2.74,2.74,0,0,1,2.7-2.71A2.71,2.71,0,0,1,52,16.62h0Z" transform="translate(-4.79 -1.56)"/></g></svg>