<svg id="Layer_1" data-name="Layer 1" xmlns="http://www.w3.org/2000/svg" xmlns:xlink="http://www.w3.org/1999/xlink" viewBox="0 0 54.99 57.06"><defs><style>.cls-1{fill:url(#linear-gradient);}.cls-2{fill:url(#linear-gradient-2);}.cls-3{fill:url(#linear-gradient-3);}.cls-4{fill:url(#linear-gradient-4);}.cls-5{fill:url(#linear-gradient-5);}.cls-6{fill:url(#linear-gradient-6);}.cls-7{fill:url(#linear-gradient-7);}.cls-8{fill:url(#linear-gradient-8);}.cls-9{fill:url(#linear-gradient-9);}.cls-10{fill:url(#linear-gradient-10);}.cls-11{fill:url(#linear-gradient-11);}</style><linearGradient id="linear-gradient" x1="-485.28" y1="567.75" x2="-485.28" y2="567.28" gradientTransform="matrix(80.6, 0, 0, -112.84, 39158.93, 64068.95)" gradientUnits="userSpaceOnUse"><stop offset="0" stop-color="#ff4033"/><stop offset="1" stop-color="#db1d57"/></linearGradient><linearGradient id="linear-gradient-2" x1="-484.66" y1="567.45" x2="-484.66" y2="567" gradientTransform="matrix(60.51, 0, 0, -100.82, 29393.98, 57224.11)" xlink:href="#linear-gradient"/><linearGradient id="linear-gradient-3" x1="-484.84" y1="567.36" x2="-484.84" y2="566.9" gradientTransform="matrix(70.2, 0, 0, -98.23, 34082.41, 55742.76)" xlink:href="#linear-gradient"/><linearGradient id="linear-gradient-4" x1="-481.09" y1="558.2" x2="-481.09" y2="557.74" gradientTransform="matrix(35.05, 0, 0, -27.34, 16907.16, 15280.91)" xlink:href="#linear-gradient"/><linearGradient id="linear-gradient-5" x1="-482.81" y1="548.1" x2="-482.81" y2="547.64" gradientTransform="matrix(44.1, 0, 0, -14.17, 21343.07, 7805.05)" xlink:href="#linear-gradient"/><linearGradient id="linear-gradient-6" x1="-481.58" y1="544.59" x2="-481.58" y2="544.14" gradientTransform="matrix(36.71, 0, 0, -12.41, 17729.47, 6797.41)" xlink:href="#linear-gradient"/><linearGradient id="linear-gradient-7" x1="-481.55" y1="545.08" x2="-481.55" y2="544.62" gradientTransform="matrix(36.27, 0, 0, -12.32, 17517.51, 6757.82)" xlink:href="#linear-gradient"/><linearGradient id="linear-gradient-8" x1="-480.62" y1="541.98" x2="-480.62" y2="541.52" gradientTransform="matrix(32.51, 0, 0, -11.42, 15671.34, 6225.28)" xlink:href="#linear-gradient"/><linearGradient id="linear-gradient-9" x1="-474.79" y1="529.72" x2="-474.79" y2="529.26" gradientTransform="matrix(18.57, 0, 0, -8.13, 8865.1, 4335.93)" xlink:href="#linear-gradient"/><linearGradient id="linear-gradient-10" x1="-434.84" y1="502.76" x2="-434.84" y2="502.3" gradientTransform="matrix(4.89, 0, 0, -4.88, 2170.63, 2484.7)" xlink:href="#linear-gradient"/><linearGradient id="linear-gradient-11" x1="-483.26" y1="563.03" x2="-483.26" y2="562.57" gradientTransform="matrix(44.32, 0, 0, -44.32, 21488.06, 24972.24)" xlink:href="#linear-gradient"/></defs><path id="Path_11" data-name="Path 11" class="cls-1" d="M28.55,3.72c1.56,0,3.09,0,4.61,0a1.22,1.22,0,0,1,.78.35C34.89,5,35.83,6,36.74,7a1.6,1.6,0,0,0,1.31.55H61.52v2.83h1.81V3.09c0-1-.27-1.27-1.23-1.27H27.91c-1,0-1.23.28-1.23,1.26V53.94c0,1,.28,1.24,1.19,1.24h9.22l.55,0V53.29H28.55Zm32.92,0V5.6l-.57,0c-2.86,0-5.72,0-8.58,0a1.07,1.07,0,0,1-.89-.4C51,4.76,50.51,4.31,50,3.75Zm-17.76,0h3.51a.5.5,0,0,1,.29.16,12.2,12.2,0,0,1,1.55,1.74,15,15,0,0,0-2,0,2.73,2.73,0,0,1-2.84-1.24,3.26,3.26,0,0,0-.58-.54Zm-7.32,0h4.29a.73.73,0,0,1,.44.19c.53.51,1,1,1.64,1.65a5.18,5.18,0,0,1-.52.06c-1.25,0-2.51,0-3.77,0a1.11,1.11,0,0,1-.68-.3c-.52-.46-1-1-1.49-1.45Z" transform="translate(-26.68 -1.82)"/><path id="Path_12" data-name="Path 12" class="cls-2" d="M81.43,23.92A14,14,0,0,0,68.75,12.73a13.89,13.89,0,0,0-5,27.08c-.06.14-.12.28-.17.42a2.71,2.71,0,0,0,1.19,3.51.72.72,0,0,1,.42.77q0,5.7,0,11.42a3.6,3.6,0,0,0,.06.8,2.75,2.75,0,0,0,5.43-.66c0-3.85,0-7.69,0-11.54a.73.73,0,0,1,.45-.8,2.53,2.53,0,0,0,1.29-1.62,3,3,0,0,0-.32-2.32A14,14,0,0,0,81.43,23.92Zm-13,32.92a1.16,1.16,0,0,1-1,0c-.63-.36-.43-1-.43-1.64h1.8c0,.61.21,1.27-.42,1.63ZM67,53.29V44.14H68.8v9.15Zm2.65-11c-.59,0-1.18,0-1.77,0s-1.14,0-1.71,0a.91.91,0,0,1-1-.82.93.93,0,0,1,.82-1h3.65a.92.92,0,0,1,.19,1.84Zm-1.78-3.69a12,12,0,1,1,11.94-12v.12A12,12,0,0,1,67.88,38.56Z" transform="translate(-26.68 -1.82)"/><path id="Path_13" data-name="Path 13" class="cls-3" d="M41.86,55.9l-8.21-35L59.5,14.73c-.14-.62-.27-1.19-.41-1.79l-.33,0L45.26,16.2l-12.62,3c-.92.22-1.15.58-.94,1.47Q36,38.84,40.21,57c.19.82.6,1.06,1.42.87L62.36,53c.4-.09.79-.21,1.19-.32-.15-.63-.29-1.18-.44-1.78Z" transform="translate(-26.68 -1.82)"/><path id="Path_14" data-name="Path 14" class="cls-4" d="M52.63,19.2l-7.89,1.86-6.66,1.59c-.76.18-1.07.59-.92,1.26q.81,3.47,1.64,6.93c.19.79.57,1,1.34.82l8-1.9,4.37-1.05-.44-1.8-11.7,2.78-1.26-5.37L53.06,21Z" transform="translate(-26.68 -1.82)"/><path id="Path_15" data-name="Path 15" class="cls-5" d="M61.83,40.71,42.2,45.38c.16.65.29,1.22.44,1.82l19.61-4.68C62.11,41.9,62,41.35,61.83,40.71Z" transform="translate(-26.68 -1.82)"/><path id="Path_16" data-name="Path 16" class="cls-6" d="M41.35,41.79c.16.64.29,1.2.44,1.82l16.26-3.88c-.15-.64-.29-1.19-.43-1.81Z" transform="translate(-26.68 -1.82)"/><path id="Path_17" data-name="Path 17" class="cls-7" d="M43.48,50.79,59.53,47c-.14-.63-.27-1.19-.42-1.81L43,49Z" transform="translate(-26.68 -1.82)"/><path id="Path_18" data-name="Path 18" class="cls-8" d="M40.52,38.2c.14.62.28,1.18.43,1.81L55.3,36.59l-.43-1.81Z" transform="translate(-26.68 -1.82)"/><path id="Path_19" data-name="Path 19" class="cls-9" d="M45,33.33c.14.61.27,1.18.42,1.82l8-1.91L53,31.43Z" transform="translate(-26.68 -1.82)"/><path id="Path_20" data-name="Path 20" class="cls-10" d="M41.88,36l1.8-.42c-.16-.65-.29-1.22-.44-1.81l-1.78.44C41.6,34.81,41.73,35.36,41.88,36Z" transform="translate(-26.68 -1.82)"/><path id="Path_21" data-name="Path 21" class="cls-11" d="M68,16.41A10.15,10.15,0,1,0,78,26.65v-.07A10.1,10.1,0,0,0,68,16.41Zm0,18.46a8.31,8.31,0,1,1,8.2-8.36v.07A8.33,8.33,0,0,1,68,34.87Z" transform="translate(-26.68 -1.82)"/></svg>