<svg id="_1" data-name="1" xmlns="http://www.w3.org/2000/svg" viewBox="0 0 341.89 339.75"><defs><style>.cls-1{fill:#3f3d56;}.cls-2{fill:#ffc603;}.cls-3{opacity:0.1;isolation:isolate;}</style></defs><g id="Group_29" data-name="Group 29"><circle id="Ellipse_27" data-name="Ellipse 27" class="cls-1" cx="172.09" cy="169.8" r="169.8"/><path id="Path_90" data-name="Path 90" class="cls-2" d="M372.71,118.5l-50.82,51.72a.92.92,0,0,0,0,1.3l0,0,35.67,37.93a6.14,6.14,0,1,1-8.68,8.68l-35.5-37.81a1,1,0,0,0-1.36,0l-8.64,8.74a38.06,38.06,0,0,1-27.18,11.43,38.85,38.85,0,0,1-27.66-11.76l-8.31-8.49a1,1,0,0,0-1.35,0L203.48,218a6.14,6.14,0,0,1-8.69-8.68l35.54-37.85a1,1,0,0,0,0-1.32L179.5,118.41a.94.94,0,0,0-1.32,0,.93.93,0,0,0-.28.67v103.5A15.16,15.16,0,0,0,193,237.68H359.26a15.16,15.16,0,0,0,15.1-15.1V119.16a1,1,0,0,0-.89-1,1,1,0,0,0-.75.32Z" transform="translate(-104.06 0)"/><path id="Path_91" data-name="Path 91" class="cls-2" d="M276.14,188.25a25.68,25.68,0,0,0,18.55-7.65l74.05-75.37a14.83,14.83,0,0,0-9.34-3.4H193a14.78,14.78,0,0,0-9.35,3.4l74.06,75.37A25.65,25.65,0,0,0,276.14,188.25Z" transform="translate(-104.06 0)"/><path id="Path_92" data-name="Path 92" class="cls-3" d="M274,0A169.87,169.87,0,1,0,443.79,170v-.14A169.86,169.86,0,0,0,274,0Zm0,317A147.23,147.23,0,1,1,421.23,169.8,147.23,147.23,0,0,1,274,317Z" transform="translate(-104.06 0)"/></g></svg>