<?xml version="1.0" encoding="utf-8"?>
<!-- Generator: Adobe Illustrator 25.0.0, SVG Export Plug-In . SVG Version: 6.00 Build 0)  -->
<svg version="1.1" id="_x31_" xmlns="http://www.w3.org/2000/svg" xmlns:xlink="http://www.w3.org/1999/xlink" x="0px" y="0px"
	 viewBox="0 0 339.7 339.8" style="enable-background:new 0 0 339.7 339.8;" xml:space="preserve">
<style type="text/css">
	.st0{fill:#3F3D56;}
	.st1{fill:#FFC603;}
	.st2{opacity:0.1;enable-background:new    ;}
</style>
<g id="Group_28" transform="translate(-767.018 -232.018)">
	<ellipse id="Ellipse_26" class="st0" cx="937" cy="401.8" rx="169.8" ry="169.8"/>
	<path id="Path_88" class="st1" d="M1009.8,445.6c-8.2-7.2-17.4-13.3-27.2-18.2c-8.1-3.9-11.1-3.8-16.9,0.3
		c-4.8,3.4-7.9,6.7-13.4,5.5s-16.4-9.4-27-19.9c-10.6-10.5-18.7-21.4-19.9-26.9s2-8.6,5.5-13.4c4.2-5.8,4.3-8.8,0.3-16.9
		c-4.9-9.8-11-18.9-18.2-27.2c-6-6-7.2-4.6-10.5-3.4c-3.4,1.4-6.6,3.1-9.6,5.1c-5,2.8-9,7.1-11.5,12.2c-2.3,5-5,14.2,8.6,38.3
		c10,18.4,22.7,35.3,37.5,50.1l0,0c14.8,14.9,31.7,27.6,50.2,37.6c24.1,13.6,33.3,10.9,38.3,8.6c5.1-2.5,9.4-6.6,12.2-11.5
		c2-3,3.7-6.3,5.1-9.6C1014.5,452.9,1015.8,451.5,1009.8,445.6z"/>
	<path id="Path_89" class="st2" d="M937,232c-93.8,0-169.9,76-169.9,169.8c0,93.8,76,169.9,169.8,169.9c93.8,0,169.9-76,169.9-169.8
		c0,0,0-0.1,0-0.1C1106.7,308.1,1030.7,232.1,937,232z M937,549.1c-81.3,0-147.2-65.9-147.2-147.2S855.6,254.6,937,254.6
		s147.2,65.9,147.2,147.2l0,0C1084.2,483.1,1018.3,549.1,937,549.1L937,549.1L937,549.1z"/>
</g>
</svg>
