<svg id="Layer_1" data-name="Layer 1" xmlns="http://www.w3.org/2000/svg" xmlns:xlink="http://www.w3.org/1999/xlink" viewBox="0 0 64.38 55.76"><defs><style>.cls-1{fill:url(#linear-gradient);}.cls-2{fill:url(#linear-gradient-2);}.cls-3{fill:url(#linear-gradient-3);}.cls-4{fill:url(#linear-gradient-4);}</style><linearGradient id="linear-gradient" x1="-486.64" y1="567.68" x2="-486.64" y2="567.17" gradientTransform="matrix(128.98, 0, 0, -110.24, 62817.65, 62580.19)" gradientUnits="userSpaceOnUse"><stop offset="0" stop-color="#ff4033"/><stop offset="1" stop-color="#db1d57"/></linearGradient><linearGradient id="linear-gradient-2" x1="-477.49" y1="538.84" x2="-477.49" y2="538.33" gradientTransform="matrix(22.46, 0, 0, -10.85, 10766.52, 5867.73)" xlink:href="#linear-gradient"/><linearGradient id="linear-gradient-3" x1="-477.85" y1="540.51" x2="-477.85" y2="540" gradientTransform="matrix(22.46, 0, 0, -10.9, 10781.62, 5925.83)" xlink:href="#linear-gradient"/><linearGradient id="linear-gradient-4" x1="-478.28" y1="538.9" x2="-478.28" y2="538.39" gradientTransform="matrix(22.62, 0, 0, -10.88, 10874.63, 5880.15)" xlink:href="#linear-gradient"/></defs><path id="Path_28" data-name="Path 28" class="cls-1" d="M80.89,22.23A4.67,4.67,0,0,0,78,19a1.52,1.52,0,0,0-2,.71l0,.1a1.53,1.53,0,0,0,.77,2l.09,0A1.88,1.88,0,0,1,78,23.77c0,1.78,0,3.56,0,5.35a17.63,17.63,0,0,1,0,1.78,1.49,1.49,0,0,1-1.25,1.4c-.74.05-1.5,0-2.29,0,0-.32,0-.59.06-.86a25.65,25.65,0,0,0-.7-11,26,26,0,0,0-23-19,24.52,24.52,0,0,0-12,2.08,25.53,25.53,0,0,0-10.76,8.9A24.22,24.22,0,0,0,23.5,23.53c-.31,2.62-.26,5.29-.36,7.93,0,.27,0,.54,0,.87a10.59,10.59,0,0,0-1.14,0c-1.53.16-2.3-.76-2.25-2.3.07-2,.05-3.95,0-5.93a2.18,2.18,0,0,1,1.34-2.33,1.5,1.5,0,0,0,.78-2l0-.07a1.59,1.59,0,0,0-2-.79,4.78,4.78,0,0,0-3.14,4.48c0,2.38,0,4.75,0,7.13a4.84,4.84,0,0,0,4.78,4.91h0c1,0,2,0,2.95,0a1.67,1.67,0,0,0,1.77-1.59.6.6,0,0,0,0-.19c0-1.49,0-3,0-4.46a50.32,50.32,0,0,1,.45-6,21.59,21.59,0,0,1,4.58-10.12A22.4,22.4,0,0,1,42.8,5.38a22.69,22.69,0,0,1,8.52-.72c.69.07,1.36.22,2.1.35a22.57,22.57,0,0,1-9.83,6.42,25,25,0,0,1-8.06,1,1.57,1.57,0,0,0-.08,3.14,42,42,0,0,0,4.76-.24,25.09,25.09,0,0,0,16.19-9,.66.66,0,0,1,.9-.23,23.17,23.17,0,0,1,14,25.11A22.15,22.15,0,0,1,66.5,42.1a22.56,22.56,0,0,1-10.78,7.39l-.09-.05-.16-.19a4.85,4.85,0,0,0-4.12-2.17c-1.61,0-3.22,0-4.84,0a6.37,6.37,0,0,0-1.78.29,5,5,0,0,0-3.27,5.29A4.86,4.86,0,0,0,45.66,57a51.56,51.56,0,0,0,5.83.09,4.8,4.8,0,0,0,4.7-3.77,1.21,1.21,0,0,1,1-1A25.5,25.5,0,0,0,72.28,38.63c.48-1,.87-2.09,1.31-3.14.93,0,1.83,0,2.73,0A4.28,4.28,0,0,0,80,33.67,14.58,14.58,0,0,0,81,31.42v-8.8C81,22.49,80.93,22.36,80.89,22.23ZM51.25,54H48.87c-.82,0-1.64,0-2.45,0a1.84,1.84,0,0,1-1.88-1.8h0a1.77,1.77,0,0,1,1.59-1.92h.16c1.71-.06,3.43-.06,5.14,0a1.84,1.84,0,0,1,1.84,1.85.61.61,0,0,1,0,.14,1.86,1.86,0,0,1-2,1.75Z" transform="translate(-16.66 -1.38)"/><path id="Path_29" data-name="Path 29" class="cls-2" d="M43.4,23.58a1.73,1.73,0,0,0,1.46,1A1.52,1.52,0,0,0,46.42,23a1.54,1.54,0,0,0-.19-.79,5.75,5.75,0,0,0-.9-1.22,6.19,6.19,0,0,0-8.83-.24,6.48,6.48,0,0,0-1,1.3,1.58,1.58,0,0,0,0,1.79,1.23,1.23,0,0,0,1.46.61,2.85,2.85,0,0,0,1.22-.89,3.37,3.37,0,0,1,2.18-1.37A3,3,0,0,1,43.4,23.58Z" transform="translate(-16.66 -1.38)"/><path id="Path_30" data-name="Path 30" class="cls-3" d="M48.5,38.6a3.28,3.28,0,0,1-2.34-1.53,1.53,1.53,0,0,0-2.11-.57l-.13.09a1.63,1.63,0,0,0-.29,2.27l0,0a6.19,6.19,0,0,0,10.6-.22,1.54,1.54,0,0,0-2.51-1.79c-.16.2-.29.42-.46.61A3,3,0,0,1,48.5,38.6Z" transform="translate(-16.66 -1.38)"/><path id="Path_31" data-name="Path 31" class="cls-4" d="M53.21,24.48a3.39,3.39,0,0,0,1.23-1,3.06,3.06,0,0,1,4-.92A7,7,0,0,1,59.85,24a1.56,1.56,0,0,0,1.69.5A1.69,1.69,0,0,0,62.65,23a5.46,5.46,0,0,0-.39-1,6.19,6.19,0,0,0-10.69.22A1.48,1.48,0,0,0,51.72,24,1.26,1.26,0,0,0,53.21,24.48Z" transform="translate(-16.66 -1.38)"/></svg>